<?xml version="1.0" encoding="UTF-8" standalone="no"?>
<!-- Created with Inkscape (http://www.inkscape.org/) -->

<svg
   xmlns:dc="http://purl.org/dc/elements/1.1/"
   xmlns:cc="http://creativecommons.org/ns#"
   xmlns:rdf="http://www.w3.org/1999/02/22-rdf-syntax-ns#"
   xmlns:svg="http://www.w3.org/2000/svg"
   xmlns="http://www.w3.org/2000/svg"
   xmlns:xlink="http://www.w3.org/1999/xlink"
   xmlns:sodipodi="http://sodipodi.sourceforge.net/DTD/sodipodi-0.dtd"
   xmlns:inkscape="http://www.inkscape.org/namespaces/inkscape"
   width="390"
   height="410"
   id="svg2"
   version="1.1"
   inkscape:version="0.48.3.1 r9886"
   sodipodi:docname="diffuse_vs_direct.svg"
   inkscape:export-filename="/home/lee/Documents/eclipse-workspace/master_lee/documents/diagrams/diffuse_vs_direct.png"
   inkscape:export-xdpi="90"
   inkscape:export-ydpi="90">
  <defs
     id="defs4">
    <marker
       inkscape:stockid="Arrow1Lend"
       orient="auto"
       refY="0"
       refX="0"
       id="Arrow1Lend"
       style="overflow:visible">
      <path
         id="path4541"
         d="M 0,0 5,-5 -12.5,0 5,5 0,0 z"
         style="fill-rule:evenodd;stroke:#000000;stroke-width:1pt"
         transform="matrix(-0.8,0,0,-0.8,-10,0)"
         inkscape:connector-curvature="0" />
    </marker>
    <path
       style="fill:none;stroke:#000000;stroke-width:0.94621301px;stroke-linecap:butt;stroke-linejoin:miter;stroke-opacity:1;marker-end:url(#Arrow1Lend)"
       d="M 387.61638,423.20204 566.83253,662.1569"
       id="path4520-6"
       inkscape:connector-curvature="0" />
    <path
       style="fill:none;stroke:#000000;stroke-width:0.94621301px;stroke-linecap:butt;stroke-linejoin:miter;stroke-opacity:1;marker-end:url(#Arrow1Lend)"
       d="M 387.61638,423.20204 566.83253,662.1569"
       id="path4520-7"
       inkscape:connector-curvature="0" />
    <path
       style="fill:none;stroke:#000000;stroke-width:1;stroke-linecap:butt;stroke-linejoin:miter;stroke-miterlimit:4;stroke-opacity:1;stroke-dasharray:3, 3;stroke-dashoffset:0;marker-end:url(#Arrow1Lend)"
       d="M 579.06718,458.58427 588.15855,668.696"
       id="path4518"
       inkscape:connector-curvature="0" />
    <path
       style="fill:none;stroke:#000000;stroke-width:1px;stroke-linecap:butt;stroke-linejoin:miter;stroke-opacity:1;marker-end:url(#Arrow1Lend)"
       d="m 375,432.36218 63.57143,265 114.28571,-23.57143"
       id="path4528"
       inkscape:connector-curvature="0" />
    <path
       style="fill:none;stroke:#000000;stroke-width:0.94621301px;stroke-linecap:butt;stroke-linejoin:miter;stroke-opacity:1;marker-end:url(#Arrow1Lend)"
       d="M 387.61638,423.20204 566.83253,662.1569"
       id="path4520"
       inkscape:connector-curvature="0" />
    <marker
       inkscape:stockid="Arrow1Lend"
       orient="auto"
       refY="0"
       refX="0"
       id="Arrow1Lend-7"
       style="overflow:visible">
      <path
         inkscape:connector-curvature="0"
         id="path4541-1"
         d="M 0,0 5,-5 -12.5,0 5,5 0,0 z"
         style="fill-rule:evenodd;stroke:#000000;stroke-width:1pt"
         transform="matrix(-0.8,0,0,-0.8,-10,0)" />
    </marker>
    <marker
       inkscape:stockid="Arrow1Lend"
       orient="auto"
       refY="0"
       refX="0"
       id="marker5249"
       style="overflow:visible">
      <path
         inkscape:connector-curvature="0"
         id="path5251"
         d="M 0,0 5,-5 -12.5,0 5,5 0,0 z"
         style="fill-rule:evenodd;stroke:#000000;stroke-width:1pt"
         transform="matrix(-0.8,0,0,-0.8,-10,0)" />
    </marker>
    <marker
       inkscape:stockid="Arrow1Lend"
       orient="auto"
       refY="0"
       refX="0"
       id="marker5253"
       style="overflow:visible">
      <path
         inkscape:connector-curvature="0"
         id="path5255"
         d="M 0,0 5,-5 -12.5,0 5,5 0,0 z"
         style="fill-rule:evenodd;stroke:#000000;stroke-width:1pt"
         transform="matrix(-0.8,0,0,-0.8,-10,0)" />
    </marker>
    <marker
       inkscape:stockid="Arrow1Lend"
       orient="auto"
       refY="0"
       refX="0"
       id="marker5257"
       style="overflow:visible">
      <path
         inkscape:connector-curvature="0"
         id="path5259"
         d="M 0,0 5,-5 -12.5,0 5,5 0,0 z"
         style="fill-rule:evenodd;stroke:#000000;stroke-width:1pt"
         transform="matrix(-0.8,0,0,-0.8,-10,0)" />
    </marker>
    <marker
       inkscape:stockid="Arrow1Lend"
       orient="auto"
       refY="0"
       refX="0"
       id="marker5261"
       style="overflow:visible">
      <path
         inkscape:connector-curvature="0"
         id="path5263"
         d="M 0,0 5,-5 -12.5,0 5,5 0,0 z"
         style="fill-rule:evenodd;stroke:#000000;stroke-width:1pt"
         transform="matrix(-0.8,0,0,-0.8,-10,0)" />
    </marker>
  </defs>
  <sodipodi:namedview
     id="base"
     pagecolor="#ffffff"
     bordercolor="#666666"
     borderopacity="1.0"
     inkscape:pageopacity="0.0"
     inkscape:pageshadow="2"
     inkscape:zoom="1.4"
     inkscape:cx="303.44789"
     inkscape:cy="320.39728"
     inkscape:document-units="px"
     inkscape:current-layer="layer1"
     showgrid="false"
     inkscape:window-width="1920"
     inkscape:window-height="1180"
     inkscape:window-x="1913"
     inkscape:window-y="-10"
     inkscape:window-maximized="1" />
  <metadata
     id="metadata7">
    <rdf:RDF>
      <cc:Work
         rdf:about="">
        <dc:format>image/svg+xml</dc:format>
        <dc:type
           rdf:resource="http://purl.org/dc/dcmitype/StillImage" />
        <dc:title />
      </cc:Work>
    </rdf:RDF>
  </metadata>
  <g
     inkscape:label="Layer 1"
     inkscape:groupmode="layer"
     id="layer1"
     transform="translate(0,-642.36218)">
    <path
       style="fill:#e9afaf;fill-opacity:1;stroke:#4eadc3;stroke-width:1;stroke-miterlimit:4;stroke-opacity:1;stroke-dasharray:none;stroke-dashoffset:0"
       d="m -35.5,1050.3492 0.375,0 c 0,-0.119 -0.2908,-0.084 -0.375,0 z"
       id="path4495"
       inkscape:connector-curvature="0" />
    <path
       style="fill:#e9afaf;fill-opacity:1;stroke:#4eadc3;stroke-width:1;stroke-miterlimit:4;stroke-opacity:1;stroke-dasharray:none;stroke-dashoffset:0"
       d="m -11.90625,1041.7555 0.34375,0 c 0,-0.1191 -0.2247,0 -0.34375,0 z"
       id="path4493"
       inkscape:connector-curvature="0" />
    <path
       style="fill:#e9afaf;fill-opacity:1;stroke:#4eadc3;stroke-width:1;stroke-miterlimit:4;stroke-opacity:1;stroke-dasharray:none;stroke-dashoffset:0"
       d="m -9.40625,1042.1305 0.34375,0 c 0,-0.1191 -0.23727,0.053 -0.34375,0 z"
       id="path4491"
       inkscape:connector-curvature="0" />
    <path
       inkscape:connector-curvature="0"
       style="fill:#e9afaf;fill-opacity:1;stroke:#4eadc3;stroke-width:1;stroke-miterlimit:4;stroke-opacity:1;stroke-dasharray:none;stroke-dashoffset:0"
       d="m 12.85469,1055.8622 c 0.11905,0 0.22381,-0.01 0.34375,0 0,-0.119 -0.2247,0 -0.34375,0 z"
       id="rect4459" />
    <g
       id="g4358"
       transform="translate(-117.64978,365.36666)">
      <g
         transform="translate(134.64286,-18.571429)"
         id="g4147">
        <path
           style="fill:#ffff00;fill-opacity:1;stroke:#f26332;stroke-opacity:1"
           d="m 61.28926,343.35867 c 0.2963,1.5391 0.46875,3.12442 0.46875,4.75 0,2.25852 -0.31356,4.45017 -0.875,6.53125 l 13.937498,-5.84375 -13.531248,-5.4375 z"
           id="rect3021"
           inkscape:connector-curvature="0" />
        <path
           style="fill:#ffff00;fill-opacity:1;stroke:#f26332;stroke-opacity:1"
           d="m 4.7492257,354.63992 c -0.2963,-1.5391 -0.46875,-3.12442 -0.46875,-4.75 0,-2.25852 0.31356,-4.45017 0.875,-6.53125 l -13.9375,5.84375 13.53125,5.4375 z"
           id="rect3021-7"
           inkscape:connector-curvature="0" />
        <path
           style="fill:#ffff00;fill-opacity:1;stroke:#f26332;stroke-opacity:1"
           d="m 10.923479,369.58549 c -1.02615,-1.18475 -1.96816,-2.47145 -2.78095,-3.87925 -1.12926,-1.95593 -1.953531,-4.01074 -2.5078506,-6.09372 l -9.14835,12.02958 14.4371506,-2.05661 z"
           id="rect3021-25"
           inkscape:connector-curvature="0" />
        <path
           style="fill:#ffff00;fill-opacity:1;stroke:#f26332;stroke-opacity:1"
           d="m 23.627143,378.16764 c -1.48105,-0.51295 -2.9402,-1.15626 -4.34799,-1.96905 -1.95594,-1.12926 -3.69718,-2.49664 -5.21873,-4.0234 l -1.90791,14.9921 11.47463,-8.99965 z"
           id="rect3021-35"
           inkscape:connector-curvature="0" />
        <path
           style="fill:#ffff00;fill-opacity:1;stroke:#f26332;stroke-opacity:1"
           d="m 38.201516,379.08471 c -1.5391,0.2963 -3.12442,0.46875 -4.75,0.46875 -2.25852,0 -4.45017,-0.31356 -6.53125,-0.875 l 5.84375,13.9375 5.4375,-13.53125 z"
           id="rect3021-4"
           inkscape:connector-curvature="0" />
        <path
           style="fill:#ffff00;fill-opacity:1;stroke:#f26332;stroke-opacity:1"
           d="m 52.568588,372.45266 c -1.18475,1.02615 -2.47145,1.96816 -3.87924,2.78095 -1.95594,1.12926 -4.01074,1.95353 -6.09373,2.50785 l 12.02959,9.14836 -2.05662,-14.43716 z"
           id="rect3021-9"
           inkscape:connector-curvature="0" />
        <path
           style="fill:#ffff00;fill-opacity:1;stroke:#f26332;stroke-opacity:1"
           d="m 61.617658,359.88999 c -0.51295,1.48105 -1.15626,2.9402 -1.96905,4.348 -1.12926,1.95593 -2.49664,3.69718 -4.0234,5.21872 l 14.992108,1.90792 -8.999658,-11.47464 z"
           id="rect3021-50"
           inkscape:connector-curvature="0" />
        <path
           style="fill:#ffff00;fill-opacity:1;stroke:#f26332;stroke-opacity:1"
           d="m 5.2085089,338.36277 c 0.51295,-1.48105 1.15626,-2.9402 1.9690499,-4.348 1.1292592,-1.95593 2.4966392,-3.69718 4.0233992,-5.21872 l -14.992109,-1.90792 8.9996599,11.47464 z"
           id="rect3021-7-5"
           inkscape:connector-curvature="0" />
        <path
           style="fill:#ffff00;fill-opacity:1;stroke:#f26332;stroke-opacity:1"
           d="m 13.931653,326.76389 c 1.18475,-1.02615 2.47145,-1.96816 3.87924,-2.78096 1.95594,-1.12925 4.01075,-1.95353 6.09373,-2.50784 l -12.02959,-9.14836 2.05662,14.43716 z"
           id="rect3021-7-5-6"
           inkscape:connector-curvature="0" />
        <path
           style="fill:#ffff00;fill-opacity:1;stroke:#f26332;stroke-opacity:1"
           d="m 26.920016,321.12977 c 1.5391,-0.2963 3.12442,-0.46876 4.75001,-0.46877 2.25851,10e-6 4.45017,0.31357 6.53124,0.87502 l -5.84375,-13.93751 -5.4375,13.53126 z"
           id="rect3021-7-5-6-8"
           inkscape:connector-curvature="0" />
        <path
           style="fill:#ffff00;fill-opacity:1;stroke:#f26332;stroke-opacity:1"
           d="m 41.150566,321.04892 c 1.48105,0.51295 2.94021,1.15625 4.34801,1.96904 1.95592,1.12926 3.697181,2.49664 5.21871,4.02341 l 1.90792,-14.99212 -11.47464,8.99967 z"
           id="rect3021-7-5-6-8-2"
           inkscape:connector-curvature="0" />
        <path
           style="fill:#ffff00;fill-opacity:1;stroke:#f26332;stroke-opacity:1"
           d="m 55.625207,330.66727 c 1.02615,1.18476 1.96817,2.47145 2.78097,3.87925 1.12924,1.95593 1.95353,4.01074 2.50783,6.09373 l 9.148363,-12.0296 -14.437163,2.05662 z"
           id="rect3021-7-5-6-8-2-9"
           inkscape:connector-curvature="0" />
        <path
           sodipodi:type="arc"
           style="fill:#ffff00;fill-opacity:1;stroke:#ffffff;stroke-width:6.66924572;stroke-miterlimit:4;stroke-opacity:1;stroke-dasharray:none"
           id="path3019"
           sodipodi:cx="170.96832"
           sodipodi:cy="331.87088"
           sodipodi:rx="28.53681"
           sodipodi:ry="27.02158"
           d="m 199.50513,331.87088 c 0,14.92361 -12.77636,27.02158 -28.53681,27.02158 -15.76044,0 -28.53681,-12.09797 -28.53681,-27.02158 0,-14.92361 12.77637,-27.02158 28.53681,-27.02158 15.76045,0 28.53681,12.09797 28.53681,27.02158 z"
           transform="matrix(0.86035225,0,0,0.90859635,-114.07386,47.570565)" />
        <path
           sodipodi:type="arc"
           style="fill:#ffff00;fill-opacity:0;stroke:#f26332;stroke-width:1.1310358;stroke-miterlimit:4;stroke-opacity:1;stroke-dasharray:none"
           id="path3019-8"
           sodipodi:cx="170.96832"
           sodipodi:cy="331.87088"
           sodipodi:rx="28.53681"
           sodipodi:ry="27.02158"
           d="m 199.50513,331.87088 c 0,14.92361 -12.77636,27.02158 -28.53681,27.02158 -15.76044,0 -28.53681,-12.09797 -28.53681,-27.02158 0,-14.92361 12.77637,-27.02158 28.53681,-27.02158 15.76045,0 28.53681,12.09797 28.53681,27.02158 z"
           transform="matrix(0.77792175,0,0,0.82154364,-99.980856,76.460824)" />
      </g>
    </g>
    <path
       style="fill:#b3b3b3;fill-opacity:1;stroke:#4eadc3;stroke-width:1;stroke-miterlimit:4;stroke-opacity:1;stroke-dasharray:none;stroke-dashoffset:0"
       d="m 301.50199,706.82647 c -6.0008,0 -11.41344,4.61666 -15.21872,12 -2.87133,-3.17618 -6.29024,-5.03125 -9.96875,-5.03125 -5.46262,0 -10.38973,4.07609 -13.75,10.53125 -2.39402,-3.36951 -5.29965,-5.34375 -8.40625,-5.34375 -6.14785,0 -11.40226,7.72204 -13.71875,18.75 l 98.96877,0 c -3.5981,-8.50352 -9.6262,-14.09375 -16.4688,-14.09375 -1.3348,0 -2.6447,0.22021 -3.9062,0.625 -3.712,-10.48414 -10.1692,-17.4375 -17.5313,-17.4375 z"
       id="path4163"
       inkscape:connector-curvature="0" />
    <path
       style="fill:#b3b3b3;fill-opacity:1;stroke:#4eadc3;stroke-width:1;stroke-miterlimit:4;stroke-opacity:1;stroke-dasharray:none;stroke-dashoffset:0"
       d="m 223.69844,724.92915 c -8.29293,0 -15.03125,6.82069 -15.03125,15.25 0,0.46384 0.0539,0.9217 0.0937,1.375 -0.89608,-0.30995 -1.83009,-0.46875 -2.8125,-0.46875 -4.49153,0 -8.30502,3.47868 -9.53125,8.25 l 67.62501,0 c 0.17228,-0.92578 0.28125,-1.86662 0.28125,-2.84375 0,-8.42931 -6.70707,-15.28125 -15,-15.28125 -4.42909,0 -8.40787,1.96207 -11.15625,5.0625 -1.70366,-6.52785 -7.51047,-11.34375 -14.46875,-11.34375 z"
       id="path4242"
       inkscape:connector-curvature="0" />
    <path
       style="fill:#b3b3b3;fill-opacity:1;stroke:#4eadc3;stroke-width:1;stroke-miterlimit:4;stroke-opacity:1;stroke-dasharray:none;stroke-dashoffset:0"
       d="m 282.50648,726.5854 c -11.07086,0 -20.0625,8.3891 -20.0625,18.71875 0,0.807 0.0812,1.59493 0.1875,2.375 -0.85925,0.0765 -1.70711,0.20054 -2.53125,0.375 -2.25761,-4.28003 -7.82871,-7.3125 -14.375,-7.3125 -7.51968,0 -13.79543,4.01421 -15.1875,9.3125 -1.05327,-0.21157 -2.13824,-0.34375 -3.28125,-0.34375 -6.99151,0 -12.65626,4.22898 -12.65626,9.4375 0,0.80712 0.15033,1.59576 0.40625,2.34375 l 105.37502,0 0,5.65625 c 0.1879,-1.02981 0.2812,-2.10794 0.2812,-3.1875 0,-9.72369 -7.9573,-17.68972 -18.125,-18.59375 10e-5,-0.0208 0,-0.0417 0,-0.0625 0,-10.32965 -8.9604,-18.71875 -20.03121,-18.71875 z"
       id="path4291"
       inkscape:connector-curvature="0" />
    <g
       id="g4510"
       transform="translate(-116.63962,374.96311)">
      <path
         id="rect4382"
         d="m 199.875,470.78125 c -0.12635,0.004 -0.25445,0.01 -0.3125,0.0312 -0.75371,0.27842 -1.0396,0.39965 -1.09375,0.4375 0.15766,-0.003 1.05826,-0.21138 0,0.375 -0.1103,0.0611 -0.2647,-0.0611 -0.375,0 -0.156,0.0865 -0.21901,0.31985 -0.375,0.40625 -0.11031,0.0611 -0.23344,-0.0611 -0.34375,0 -0.15599,0.0864 -0.21901,0.31975 -0.375,0.40625 -0.2206,0.12224 -0.54478,-0.15162 -0.75,0 -0.29022,0.21442 -0.50335,0.57042 -0.75,0.84375 -0.12332,0.13667 -0.18776,0.31985 -0.34375,0.40625 -0.11031,0.0611 -0.25167,0 -0.375,0 l -0.75,0.8125 c -0.20523,0.15162 -0.57559,-0.19328 -0.75,0 -0.19499,0.21609 -0.18001,0.59641 -0.375,0.8125 -0.0872,0.0967 -0.22677,-0.0432 -0.34375,0 -0.26161,0.0966 -0.52055,0.23673 -0.75,0.40625 -0.29023,0.21442 -0.43802,0.67087 -0.75,0.84375 -1.08875,0.60328 0.47703,-0.95356 -0.75,0.40625 -0.16662,0.18465 -0.92485,1.15645 -1.09375,1.21875 -0.23399,0.0864 -0.516,-0.0864 -0.75,0 -0.3309,0.12224 -0.45978,0.59808 -0.75,0.8125 -0.22945,0.16953 -0.45806,0.23674 -0.6875,0.40625 -0.14511,0.10721 -0.25026,0.3511 -0.40625,0.4375 -0.11031,0.0611 -0.23344,-0.0611 -0.34375,0 -0.156,0.0864 -0.25025,0.31985 -0.40625,0.40625 -0.11029,0.0611 -0.22676,-0.0432 -0.34375,0 -0.26161,0.0966 -0.4884,0.30955 -0.75,0.40625 -0.11699,0.0432 -0.23345,-0.0611 -0.34375,0 -0.15599,0.0864 -0.25026,0.31975 -0.40625,0.40625 -0.21829,0.12095 -0.83927,-0.094 -1.09375,0 -0.26161,0.0966 -0.50336,0.26958 -0.75,0.40625 -0.12333,0 -0.22675,-0.0432 -0.34375,0 -0.2616,0.0966 -0.48839,0.30955 -0.75,0.40625 -0.117,0.0432 -0.2647,-0.0611 -0.375,0 -0.15599,0.0865 -0.219,0.31985 -0.375,0.40625 -0.2206,0.12224 -0.54479,-0.15162 -0.75,0 -0.29023,0.21442 -0.45976,0.59809 -0.75,0.8125 -0.20522,0.15162 -0.49814,-0.12224 -0.71875,0 -0.15599,0.0865 -0.219,0.3511 -0.375,0.4375 -1.08875,0.60328 0.47703,-0.95356 -0.75,0.40625 -0.29598,0.164 -0.79777,-0.16401 -1.09375,0 -0.156,0.0864 -0.20955,0.34515 -0.375,0.40625 -0.23398,0.0864 -0.51071,-0.0662 -0.75,0 -0.26752,0.0741 -0.45714,0.30955 -0.71875,0.40625 -0.23398,0.0865 -0.54478,-0.15162 -0.75,0 -0.29023,0.21443 -0.45977,0.59808 -0.75,0.8125 -0.20523,0.15162 -0.48476,-0.0864 -0.71875,0 -0.26161,0.0966 -0.52056,0.23673 -0.75,0.40625 -0.14511,0.10721 -0.20954,0.34515 -0.375,0.40625 -0.23399,0.0864 -0.47947,-0.0664 -0.71875,0 -0.26753,0.0741 -0.48247,0.3633 -0.75,0.4375 -0.23928,0.0662 -0.51072,-0.0664 -0.75,0 -0.26753,0.0741 -0.48839,0.30955 -0.75,0.40625 -0.11698,0.0432 -0.22043,0 -0.34375,0 l -0.75,0.40625 c -0.21543,0.0796 -1.99544,0 -2.25,0 l -3.6875,0 -2.9375,0 c -0.25548,0 -1.38752,0.0623 -1.5,0 -0.156,-0.0864 -0.18775,-0.31985 -0.34375,-0.40625 -0.1103,-0.0611 -0.28777,0.0967 -0.375,0 -0.49329,-0.54667 0.61159,-0.40625 -0.375,-0.40625 l -1.84375,0 c -0.12332,0 -0.28778,0.0967 -0.375,0 -0.0872,-0.0966 0.0872,-0.3408 0,-0.4375 -0.0872,-0.0967 -0.26469,0.0611 -0.375,0 -0.156,-0.0865 -0.219,-0.31985 -0.375,-0.40625 -0.22059,-0.12225 -0.52939,0.12224 -0.75,0 -0.156,-0.0864 -0.19864,-0.29902 -0.34375,-0.40625 -0.22944,-0.16951 -0.50335,-0.26958 -0.75,-0.40625 -0.12333,0 -0.26469,0.0611 -0.375,0 -0.4572,-0.25332 -0.375,-0.38834 -0.375,-0.8125 -0.49329,-0.27333 -1.35046,0.27334 -1.84375,0 -0.11031,-0.0611 0.0551,-0.28401 0,-0.40625 -0.078,-0.17288 -0.18776,-0.31985 -0.34375,-0.40625 -0.22061,-0.12224 -0.6397,0.24447 -0.75,0 -0.11031,-0.24448 0.1103,-0.59927 0,-0.84375 -0.0572,-0.12667 -0.9614,0.0734 -1.09375,0 -1.53972,-0.85321 0.35923,0.0358 -0.40625,-0.8125 -0.0872,-0.0967 -0.23345,0.0611 -0.34375,0 -1.57282,-0.8716 0.82283,0.059 -0.75,-0.8125 -0.1103,-0.0611 -0.29595,0.0611 -0.40625,0 -0.156,-0.0864 -0.18776,-0.31985 -0.34375,-0.40625 -0.11031,-0.0611 -0.25652,0.0967 -0.34375,0 -0.0872,-0.0966 0.0872,-0.30955 0,-0.40625 -1.44389,-1.60013 -0.24503,0.0987 -1.15625,-0.40625 -0.15599,-0.0864 -0.18775,-0.351 -0.34375,-0.4375 -0.1103,-0.0611 -0.258,0.0432 -0.375,0 -0.26161,-0.0966 -0.45122,-0.33205 -0.71875,-0.40625 -0.35892,-0.0994 -0.75502,0 -1.125,0 l -0.375,0 c 0,-0.13666 -0.26469,-0.0611 -0.375,0 -0.72627,0.40243 -0.1716,0.79917 -0.375,1.25 -0.078,0.17288 -0.26575,0.23337 -0.34375,0.40625 -0.0551,0.12224 0.0551,0.28401 0,0.40625 -0.078,0.17287 -0.28292,0.26958 -0.40625,0.40625 -0.12332,0.13667 -0.19863,0.29903 -0.34375,0.40625 -0.45889,0.33904 -1.0411,0.47347 -1.5,0.8125 -0.14512,0.10722 -0.18775,0.31985 -0.34375,0.40625 -0.11031,0.0611 -0.25167,0 -0.375,0 l -1.125,0.84375 c -0.23642,0.131 -1.17097,-0.10998 -1.46875,0 -0.26161,0.0966 -0.48839,0.30955 -0.75,0.40625 -0.20022,0.0739 -1.34271,0 -1.46875,0 l -0.375,0 c -0.12333,0 -0.28778,0.0967 -0.375,0 -0.76548,-0.8484 1.16474,0.0407 -0.375,-0.8125 -0.2206,-0.12224 -0.6397,0.24447 -0.75,0 -0.11031,-0.24448 0.1103,-0.59927 0,-0.84375 -0.0318,-0.0705 -1.8135,0.067 -1.84375,0 -0.11029,-0.24448 0.17441,-0.61922 0,-0.8125 -0.1744,-0.19327 -0.5294,0.12224 -0.75,0 -0.11031,-0.0611 0.0872,-0.30955 0,-0.40625 -0.0872,-0.0967 -0.22044,0 -0.34375,0 l -2.9375,0 c -0.12331,0 -0.29594,-0.0611 -0.40625,0 -0.15599,0.0864 -0.18777,0.31975 -0.34375,0.40625 -0.11031,0.0611 -0.31903,-0.0967 -0.40625,0 -0.19499,0.2161 -0.17829,0.56802 -0.34375,0.8125 -0.20928,0.30924 -0.50336,0.57041 -0.75,0.84375 l -1.84375,2.03125 c -0.24664,0.27335 -0.55653,0.49086 -0.75,0.8125 -0.15297,0.25427 -0.19079,0.58948 -0.34375,0.84375 -0.0968,0.16081 -0.25167,0.26959 -0.375,0.40625 l 0,0.6875 0,0.5 0,97.375 0,19.25 0,58.03125 367.125,0 0,-58.71875 13.1875,0 4.8125,0 4.0625,0 0,-0.3125 1.5,0.4375 c 0.12332,-0.13667 0.26575,-0.23338 0.34375,-0.40625 0.0551,-0.12224 0,-0.26959 0,-0.40625 0,-0.50492 0.0813,-0.74763 -0.34375,-1.21875 -0.10359,-0.11478 -2.03794,0.39754 -1.125,-0.84375 -0.19499,-0.21609 -0.22204,-0.55823 -0.375,-0.8125 -0.0968,-0.16082 -0.26574,-0.23337 -0.34375,-0.40625 -0.0551,-0.12224 0.11031,-0.34515 0,-0.40625 -0.22061,-0.12224 -0.5294,0.12224 -0.75,0 -0.22061,-0.12224 0.1744,-0.61922 0,-0.8125 -0.0872,-0.0967 -0.26471,0.0611 -0.375,0 -0.31199,-0.17286 -0.43801,-0.67088 -0.75,-0.84375 -0.1103,-0.0611 -0.2647,0.0611 -0.375,0 -0.31199,-0.17288 -0.40676,-0.63962 -0.71875,-0.8125 -0.1103,-0.0611 -0.26469,0.0611 -0.375,0 -0.0982,-0.0544 -1.0759,-1.10991 -1.125,-1.21875 -0.0551,-0.12223 0.0551,-0.28401 0,-0.40625 -0.078,-0.17287 -0.26574,-0.23338 -0.34375,-0.40625 -0.0551,-0.12224 0.0872,-0.3408 0,-0.4375 -0.1744,-0.19328 -0.51601,0.0865 -0.75,0 -0.26161,-0.0966 -0.52055,-0.23674 -0.75,-0.40625 -0.14512,-0.10722 -0.22043,-0.26958 -0.34375,-0.40625 -0.12333,-0.13667 -0.32825,-0.23339 -0.40625,-0.40625 -0.0551,-0.12224 0.0551,-0.28401 0,-0.40625 -0.76988,-1.70633 0.0466,0.44206 -0.71875,-0.40625 -0.0872,-0.0966 0.0872,-0.30955 0,-0.40625 -0.0872,-0.0967 -0.25801,0.0432 -0.375,0 -0.26161,-0.0966 -0.4884,-0.30955 -0.75,-0.40625 -0.11699,-0.0433 -0.23345,0.0611 -0.34375,0 -0.15599,-0.0865 -0.26114,-0.33028 -0.40625,-0.4375 -0.22945,-0.16952 -0.52376,-0.19016 -0.71875,-0.40625 -0.0872,-0.0966 0.1103,-0.34515 0,-0.40625 -0.22061,-0.12224 -0.47211,0 -0.71875,0 -0.12333,-0.13667 -0.25026,-0.31975 -0.40625,-0.40625 -0.1103,-0.0611 -0.25653,0.0967 -0.34375,0 -0.0872,-0.0966 0.0551,-0.28401 0,-0.40625 -0.22198,-0.492 -0.87176,-0.72675 -1.09375,-1.21875 -0.0551,-0.12224 0.117,-0.3943 0,-0.4375 -1.00097,-0.36971 -1.12213,0.46272 -1.90625,-0.40625 -0.0872,-0.0966 0.0551,-0.28401 0,-0.40625 -0.078,-0.17287 -0.26575,-0.23337 -0.34375,-0.40625 -0.0551,-0.12224 0.0872,-0.30955 0,-0.40625 -0.19499,-0.21609 -0.59703,-0.15198 -0.75,-0.40625 -0.23065,-0.38343 0.17587,-1.12125 0,-1.21875 -0.22061,-0.12224 -0.5756,0.19328 -0.75,0 -0.17441,-0.19328 0,-0.57041 0,-0.84375 -0.12333,0 -0.25652,0.0967 -0.34375,0 -0.92931,-1.02987 1.27305,0.21736 0.34375,-0.8125 -0.17441,-0.19328 -0.49814,0.12224 -0.71875,0 -0.22061,-0.12224 0.22061,-0.69026 0,-0.8125 -0.36806,-0.20394 -1.05176,0.16222 -1.125,0 -0.1103,-0.24448 0.11031,-0.56802 0,-0.8125 -0.1103,-0.24447 -0.60846,0.24448 -0.71875,0 -0.11031,-0.24447 0.11029,-0.59927 0,-0.84375 -0.0551,-0.12224 -0.26469,0.0611 -0.375,0 -0.15599,-0.0864 -0.22989,-0.29903 -0.375,-0.40625 -0.22944,-0.16952 -0.52376,-0.19015 -0.71875,-0.40625 -0.0872,-0.0966 0.0872,-0.30955 0,-0.40625 -0.19499,-0.21609 -0.59703,-0.15197 -0.75,-0.40625 -0.13681,-0.22743 0.17441,-0.61922 0,-0.8125 -0.1744,-0.19328 -0.52939,0.12224 -0.75,0 -0.1103,-0.0611 0.0551,-0.31526 0,-0.4375 -0.078,-0.17288 -0.29699,-0.23339 -0.375,-0.40625 -0.0551,-0.12224 0.0872,-0.30955 0,-0.40625 -0.0872,-0.0967 -0.26469,0.0611 -0.375,0 -0.81803,-0.45327 -0.0885,-0.24695 -0.34375,-0.8125 -0.76987,-1.70635 0.0155,0.44207 -0.75,-0.40625 -0.0872,-0.0966 0.0872,-0.30955 0,-0.40625 -0.0872,-0.0967 -0.2647,0.0611 -0.375,0 -0.15599,-0.0864 -0.219,-0.31985 -0.375,-0.40625 -0.11031,-0.0611 -0.28778,0.0967 -0.375,0 -0.0872,-0.0966 0.0872,-0.30955 0,-0.40625 -0.0872,-0.0967 -0.23344,0.0611 -0.34375,0 -0.156,-0.0865 -0.219,-0.351 -0.375,-0.4375 -0.11031,-0.0611 -0.28778,0.0967 -0.375,0 -0.0872,-0.0966 0.0872,-0.30955 0,-0.40625 -1.13558,-1.25846 -0.32774,0.24331 -1.5,-0.40625 -0.11031,-0.0611 0.10255,-0.33045 0,-0.40625 -0.32449,-0.23973 -0.76926,-0.16651 -1.09375,-0.40625 -0.10256,-0.0758 0.0872,-0.30955 0,-0.40625 -0.19499,-0.21609 -0.55501,-0.19016 -0.75,-0.40625 -0.0872,-0.0966 0.0872,-0.30955 0,-0.40625 -0.195,-0.21609 -0.55501,-0.22141 -0.75,-0.4375 -0.0872,-0.0966 0.1103,-0.34515 0,-0.40625 -0.22061,-0.12224 -0.48475,0.0865 -0.71875,0 -0.16545,-0.0611 -0.21901,-0.31985 -0.375,-0.40625 -0.11031,-0.0611 -0.25653,0.0967 -0.34375,0 -0.0872,-0.0966 0.0872,-0.30955 0,-0.40625 -1.4439,-1.60014 -0.24504,0.0987 -1.15625,-0.40625 -0.156,-0.0864 -0.18776,-0.31975 -0.34375,-0.40625 -0.22061,-0.12224 -0.52939,0.12225 -0.75,0 -0.15598,-0.0864 -0.18776,-0.31975 -0.34375,-0.40625 -0.1467,-0.0813 -1.08062,0.0838 -1.15625,0 -0.19499,-0.21609 -0.14876,-0.62766 -0.34375,-0.84375 -0.0872,-0.0967 -0.22042,0 -0.34375,0 l -0.75,0 -0.40625,0 c 0,-0.13667 -0.22042,0 -0.34375,0 -0.12332,0 -0.26469,-0.0611 -0.375,0 -1.12825,0.62516 0.66156,0.34879 -1.125,0.84375 -0.18025,0.0499 -1.27312,-0.10837 -1.46875,0 -0.156,0.0865 -0.20954,0.34515 -0.375,0.40625 -0.8035,0.29681 -0.74545,-0.20585 -1.46875,-0.40625 -0.23928,-0.0662 -0.50336,0 -0.75,0 -0.61662,0 -1.23911,0.13402 -1.84375,0 -0.2704,-0.0599 -0.48839,-0.30955 -0.75,-0.40625 -0.117,-0.0433 -0.25652,0.0967 -0.34375,0 -0.0872,-0.0966 0.0551,-0.31526 0,-0.4375 -0.078,-0.17288 -0.297,-0.23337 -0.375,-0.40625 -0.0551,-0.12223 0.0872,-0.30955 0,-0.40625 -0.0872,-0.0967 -0.2647,0.0611 -0.375,0 -0.31199,-0.17287 -0.45978,-0.59808 -0.75,-0.8125 -0.22945,-0.16951 -0.48839,-0.30955 -0.75,-0.40625 -0.117,-0.0432 -0.25653,0.0967 -0.34375,0 -0.0872,-0.0966 0.1103,-0.34515 0,-0.40625 -0.50786,-0.2814 -1.10725,0.18862 -1.5,0.40625 -0.68237,0.37811 -1.00128,0.44167 -1.46875,1.21875 -0.0684,0.11372 0.0551,0.28402 0,0.40625 -0.15599,0.34574 -0.56276,0.498 -0.71875,0.84375 -0.0551,0.12224 0.0551,0.28401 0,0.40625 -0.18203,0.40346 -1.31797,1.22155 -1.5,1.625 -0.0551,0.12224 0.1103,0.34515 0,0.40625 -0.22757,0.1261 -1.60769,-0.1308 -1.84375,0 -0.15599,0.0864 -0.20954,0.34515 -0.375,0.40625 -0.23399,0.0865 -0.4721,0 -0.71875,0 -0.12332,0 -0.28925,0.0432 -0.40625,0 -0.26161,-0.0966 -0.48839,-0.30955 -0.75,-0.40625 -0.32833,-0.12129 -1.60149,0.13424 -1.84375,0 -0.15599,-0.0864 -0.18776,-0.31985 -0.34375,-0.40625 -0.51032,-0.28277 -0.34099,0.50029 -0.75,-0.40625 -0.0551,-0.12224 0.0872,-0.30955 0,-0.40625 -0.0756,-0.0838 -0.94706,0.0813 -1.09375,0 -1.53973,-0.85322 0.39048,0.0358 -0.375,-0.8125 -0.17441,-0.19328 -0.52939,0.12224 -0.75,0 -1.6932,-0.93821 1.55485,0.14619 -1.125,-0.84375 -0.11699,-0.0432 -0.23345,0.0611 -0.34375,0 -0.72626,-0.40244 -0.17159,-0.76791 -0.375,-1.21875 -0.078,-0.17288 -0.297,-0.23338 -0.375,-0.40625 -0.0551,-0.12224 0.0872,-0.30955 0,-0.40625 -0.19499,-0.21609 -0.48839,-0.30955 -0.75,-0.40625 -0.117,-0.0433 -0.28778,0.0967 -0.375,0 -1.1356,-1.25846 0.24237,-0.35714 -0.34375,-1.65625 -0.0241,-0.0536 -1.34494,0.0859 -1.5,0 -0.81802,-0.45326 -0.0885,-0.24695 -0.34375,-0.8125 -0.76987,-1.70634 0.0155,0.44206 -0.75,-0.40625 -0.0872,-0.0966 0.0872,-0.30955 0,-0.40625 -0.0872,-0.0967 -0.26469,0.0611 -0.375,0 -0.31198,-0.17288 -0.40677,-0.63963 -0.71875,-0.8125 -0.22061,-0.12224 -0.54477,0.15161 -0.75,0 -0.43534,-0.32163 -0.75502,-0.83999 -1.125,-1.25 -0.12331,-0.13666 -0.219,-0.31985 -0.375,-0.40625 -0.22061,-0.12224 -0.6397,0.24448 -0.75,0 -0.1103,-0.24448 0.1103,-0.56802 0,-0.8125 -0.0551,-0.12223 -0.23344,0.0611 -0.34375,0 -0.15599,-0.0864 -0.28292,-0.26957 -0.40625,-0.40625 -0.12332,-0.13667 -0.26575,-0.23338 -0.34375,-0.40625 -0.0551,-0.12224 0.0872,-0.3408 0,-0.4375 -0.0872,-0.0967 -0.25653,0.0967 -0.34375,0 -0.0872,-0.0966 0.0872,-0.30955 0,-0.40625 -0.0872,-0.0967 -0.31902,0.0967 -0.40625,0 -0.17441,-0.19328 0.17441,-0.61922 0,-0.8125 -0.0872,-0.0967 -0.25652,0.0967 -0.34375,0 -0.0872,-0.0966 0.0551,-0.28401 0,-0.40625 -0.078,-0.17287 -0.32825,-0.23337 -0.40625,-0.40625 -0.0551,-0.12224 0.0551,-0.28401 0,-0.40625 -0.078,-0.17288 -0.26575,-0.23338 -0.34375,-0.40625 -0.1103,-0.24448 0.17441,-0.65047 0,-0.84375 -0.0872,-0.0967 -0.26469,0.0611 -0.375,0 -0.81802,-0.45327 -0.1198,-0.24695 -0.375,-0.8125 -0.22198,-0.492 -0.87177,-0.72674 -1.09375,-1.21875 -0.1103,-0.24448 0.17441,-0.61922 0,-0.8125 -0.0872,-0.0967 -0.29594,0.0611 -0.40625,0 -1.53972,-0.85322 0.42173,0.005 -0.34375,-0.84375 -0.19499,-0.21609 -0.55501,-0.19016 -0.75,-0.40625 -0.0872,-0.0966 0.0551,-0.28401 0,-0.40625 -0.156,-0.34574 -0.6397,-0.44578 -0.75,-0.8125 -0.078,-0.2593 0,-0.53917 0,-0.8125 0,-0.13667 0.0551,-0.31526 0,-0.4375 -0.078,-0.17286 -0.26574,-0.23337 -0.34375,-0.40625 -0.1103,-0.24448 0.17441,-0.61923 0,-0.8125 -0.0872,-0.0967 -0.31989,0.12224 -0.375,0 -0.16544,-0.36672 0.16546,-0.85203 0,-1.21875 -0.078,-0.17288 -0.297,-0.23337 -0.375,-0.40625 -0.0589,-0.13065 0,-1.69607 0,-2.0625 l 0,-2.0625 c 0,-0.27334 0.078,-0.55319 0,-0.8125 -0.0872,-0.28992 -0.30808,-0.51601 -0.375,-0.8125 -0.0917,-0.40643 0.1092,-1.69944 0,-2.0625 -0.0872,-0.28991 -0.30808,-0.51601 -0.375,-0.8125 -0.0598,-0.26517 0.11031,-0.56802 0,-0.8125 -0.0551,-0.12224 -0.25653,0.0967 -0.34375,0 -0.0872,-0.0966 0.0551,-0.28401 0,-0.40625 -0.078,-0.17288 -0.27825,-0.24543 -0.375,-0.40625 -0.15297,-0.25428 -0.22204,-0.58947 -0.375,-0.84375 -0.0968,-0.16082 -0.29699,-0.23337 -0.375,-0.40625 -0.0551,-0.12223 0.0551,-0.28401 0,-0.40625 -0.078,-0.17287 -0.25168,-0.26958 -0.375,-0.40625 0,-0.13667 0.0551,-0.28401 0,-0.40625 -0.78966,-1.75023 0.0709,0.93773 -0.71875,-0.8125 -0.0551,-0.12224 0.0389,-0.27659 0,-0.40625 -0.0872,-0.28992 -0.28777,-0.55383 -0.375,-0.84375 -0.0389,-0.12966 0.0551,-0.28401 0,-0.40625 -0.078,-0.17288 -0.25168,-0.26959 -0.375,-0.40625 0,-0.13667 0.0551,-0.28401 0,-0.40625 -0.10277,-0.22781 -0.75,-0.68029 -0.75,-0.8125 l -2.21875,0 -1.46875,0 c -0.36998,0 -0.72882,0.0674 -1.09375,0 -0.38468,-0.0711 -0.77384,-0.32155 -1.15625,-0.40625 -0.48371,-0.10723 -0.9442,0 -1.4375,0 -0.12332,0 -0.29595,-0.0611 -0.40625,0 -0.31198,0.17288 -0.43801,0.63964 -0.75,0.8125 -0.34881,0.19328 -0.90743,-0.49705 -1.09375,0.40625 -0.14511,0.10722 -0.17829,0.34515 -0.34375,0.40625 -0.19889,0.0735 -1.18677,0 -1.5,0 -0.25733,0 -1.70995,0.0742 -1.84375,0 -0.15599,-0.0865 -0.25168,-0.26958 -0.375,-0.40625 -0.12333,0 -0.26469,0.0611 -0.375,0 -0.156,-0.0864 -0.18776,-0.31975 -0.34375,-0.40625 -0.11031,-0.0611 -0.31903,0.0967 -0.40625,0 -0.0872,-0.0966 0.0872,-0.30955 0,-0.40625 -0.0872,-0.0967 -0.22675,0.0432 -0.34375,0 -0.26161,-0.0966 -0.52056,-0.23672 -0.75,-0.40625 -0.14512,-0.1072 -0.25168,-0.30083 -0.375,-0.4375 -0.12333,-0.13667 -0.29699,-0.23339 -0.375,-0.40625 -0.0551,-0.12224 0.0872,-0.30955 0,-0.40625 -0.76553,-0.84833 0.0511,1.3001 -0.71875,-0.40625 -0.0551,-0.12224 0.0551,-0.28401 0,-0.40625 -0.078,-0.17287 -0.297,-0.23338 -0.375,-0.40625 -0.0551,-0.12224 0.0551,-0.28401 0,-0.40625 -0.078,-0.17287 -0.29699,-0.23337 -0.375,-0.40625 -0.0551,-0.12224 0.0551,-0.31526 0,-0.4375 -0.22198,-0.49201 -0.87177,-0.72674 -1.09375,-1.21875 -0.0551,-0.12224 0.0872,-0.30955 0,-0.40625 -0.0872,-0.0967 -0.28777,0.0967 -0.375,0 -0.0872,-0.0966 0.0872,-0.30955 0,-0.40625 -0.0872,-0.0967 -0.28777,0.0967 -0.375,0 -0.0872,-0.0966 0.0872,-0.30955 0,-0.40625 -0.0872,-0.0967 -0.2647,0.0611 -0.375,0 -0.156,-0.0864 -0.219,-0.31985 -0.375,-0.40625 -0.11029,-0.0611 -0.26469,0.0611 -0.375,0 -0.15599,-0.0864 -0.22988,-0.29902 -0.375,-0.40625 -0.22944,-0.16951 -0.4893,-0.26798 -0.71875,-0.4375 -0.14511,-0.10721 -0.219,-0.31975 -0.375,-0.40625 -0.1103,-0.0611 -0.2647,0.0611 -0.375,0 -1.53974,-0.85321 0.39049,0.0358 -0.375,-0.8125 -0.45062,-0.49938 -0.81044,-0.18455 -1.09375,-0.8125 -0.0551,-0.12224 0.0551,-0.28401 0,-0.40625 -0.156,-0.34574 -0.594,-0.498 -0.75,-0.84375 -0.0551,-0.12224 0.0872,-0.30955 0,-0.40625 -0.0872,-0.0967 -0.25652,0.0967 -0.34375,0 -0.0872,-0.0966 0.0551,-0.28401 0,-0.40625 -0.078,-0.17287 -0.32825,-0.23337 -0.40625,-0.40625 -0.0551,-0.12224 0.0872,-0.30955 0,-0.40625 -0.0872,-0.0967 -0.23345,0.0611 -0.34375,0 -1.53972,-0.85321 0.35923,0.0358 -0.40625,-0.8125 -0.0872,-0.0967 -0.25652,0.0967 -0.34375,0 -0.0872,-0.0966 0.0551,-0.28401 0,-0.40625 -0.078,-0.17287 -0.247,-0.27669 -0.34375,-0.4375 -0.15296,-0.25427 -0.25329,-0.55823 -0.40625,-0.8125 -0.32818,-0.54553 -1.15313,-0.83435 -1.5,-1.21875 -0.0872,-0.0966 0.0551,-0.28401 0,-0.40625 -0.078,-0.17287 -0.22043,-0.26958 -0.34375,-0.40625 -0.12332,-0.13667 -0.18775,-0.31985 -0.34375,-0.40625 -0.11031,-0.0611 -0.29595,0.0611 -0.40625,0 -0.15599,-0.0864 -0.18776,-0.3511 -0.34375,-0.4375 -0.1103,-0.0611 -0.28292,0 -0.40625,0 -0.14625,0 -1.68574,-0.0876 -1.84375,0 -0.31199,0.17288 -0.40676,0.67087 -0.71875,0.84375 -0.11029,0.0611 -0.28778,-0.0967 -0.375,0 -1.4439,1.60013 0.0806,0.20893 -0.375,1.21875 -0.078,0.17287 -0.29699,0.23338 -0.375,0.40625 -0.0551,0.12224 0.0551,0.284 0,0.40625 -0.078,0.17287 -0.26574,0.23338 -0.34375,0.40625 -0.0551,0.12224 0.11965,0.37305 0,0.40625 -0.38474,0.10659 -0.78765,0.0607 -1.1875,0.0312 -0.11628,0.026 -0.26703,0.0696 -0.3125,-0.0312 -0.1103,-0.24448 0.11031,-0.56802 0,-0.8125 -0.1103,-0.24449 -0.6397,0.24448 -0.75,0 -0.11031,-0.24449 0.1103,-0.56803 0,-0.8125 -0.11031,-0.24448 -0.54434,0.19327 -0.71875,0 -0.76548,-0.84841 1.16472,0.0407 -0.375,-0.8125 -0.1467,-0.0813 -1.04937,0.0838 -1.125,0 -0.76548,-0.84841 1.19597,0.0407 -0.34375,-0.8125 -0.11031,-0.0611 -0.26469,0.0611 -0.375,0 -0.31199,-0.17287 -0.43802,-0.67088 -0.75,-0.84375 -0.11031,-0.0611 -0.2647,0.0611 -0.375,0 -0.15599,-0.0864 -0.219,-0.31975 -0.375,-0.40625 -0.1103,-0.0611 -0.26469,0.0611 -0.375,0 -0.156,-0.0864 -0.18777,-0.31985 -0.34375,-0.40625 -0.11031,-0.0611 -0.28778,0.0967 -0.375,0 -0.0872,-0.0966 0.0872,-0.30955 0,-0.40625 -0.0756,-0.0838 -0.97831,0.0813 -1.125,0 -0.15599,-0.0864 -0.18775,-0.31985 -0.34375,-0.40625 -0.1103,-0.0611 -0.29594,0.0611 -0.40625,0 -0.156,-0.0864 -0.17455,-0.35945 -0.34375,-0.40625 -0.35892,-0.0994 -0.73482,0.0994 -1.09375,0 -0.16919,-0.0469 -0.25025,-0.31975 -0.40625,-0.40625 -0.0194,-0.0103 -1.07437,-0.0103 -1.09375,0 -0.156,0.0864 -0.18775,0.31985 -0.34375,0.40625 -0.11031,0.0611 -0.29595,-0.0611 -0.40625,0 -0.0982,0.0544 -1.04465,1.10992 -1.09375,1.21875 -0.0551,0.12224 0.0551,0.28401 0,0.40625 -0.078,0.17287 -0.26114,0.29903 -0.40625,0.40625 -0.61296,0.4528 -0.79789,0.40625 -1.4375,0.40625 -0.12333,0 -0.28925,0.0432 -0.40625,0 -0.2616,-0.0966 -0.47211,-0.26958 -0.71875,-0.40625 0,-0.13667 0.0872,-0.30955 0,-0.40625 -0.76553,-0.84832 0.0512,1.3001 -0.71875,-0.40625 -0.0551,-0.12224 0.0872,-0.30955 0,-0.40625 -0.24676,-0.27347 -0.50323,0.27347 -0.75,0 -0.76548,-0.84841 1.16474,0.0407 -0.375,-0.8125 -0.2206,-0.12223 -0.5756,0.19327 -0.75,0 -0.0872,-0.0966 0.0551,-0.28401 0,-0.40625 -0.40902,-0.90654 -0.20842,-0.15473 -0.71875,-0.4375 -1.53972,-0.85321 0.35923,0.0358 -0.40625,-0.8125 -0.0872,-0.0967 -0.23345,0.0611 -0.34375,0 -0.31199,-0.17287 -0.43801,-0.63964 -0.75,-0.8125 -0.1103,-0.0611 -0.26469,0.0611 -0.375,0 -0.45719,-0.25332 -0.375,-0.38834 -0.375,-0.8125 -0.33092,-0.18336 -0.72379,0 -1.09375,0 -0.12333,0 -0.31989,0.12224 -0.375,0 -0.1103,-0.24448 0.1744,-0.65048 0,-0.84375 -0.18499,-0.20501 -0.90877,0.205 -1.09375,0 -0.0872,-0.0966 0.1103,-0.34515 0,-0.40625 -0.22061,-0.12224 -0.52939,0.12224 -0.75,0 -0.1103,-0.0611 0.0872,-0.30955 0,-0.40625 -0.0872,-0.0967 -0.2647,0.0611 -0.375,0 -0.156,-0.0864 -0.219,-0.31985 -0.375,-0.40625 -0.2206,-0.12224 -0.54477,0.15161 -0.75,0 -0.29023,-0.21443 -0.42852,-0.59807 -0.71875,-0.8125 -0.10256,-0.0758 -0.28778,0.0967 -0.375,0 -0.19499,-0.21609 -0.18001,-0.59641 -0.375,-0.8125 -0.0872,-0.0967 -0.2647,0.0611 -0.375,0 -0.31198,-0.17288 -0.43801,-0.67087 -0.75,-0.84375 -0.22061,-0.12224 -0.49813,0.12224 -0.71875,0 -1.53973,-0.85322 0.39049,0.0358 -0.375,-0.8125 -0.0872,-0.0967 -0.22042,0 -0.34375,0 l -1.5,0 c 0,-0.13666 -0.23345,0.0611 -0.34375,0 -0.15599,-0.0864 -0.25025,-0.31975 -0.40625,-0.40625 -0.11031,-0.0611 -0.25652,0.0967 -0.34375,0 -0.0872,-0.0966 0.0872,-0.30955 0,-0.40625 -0.0756,-0.0838 -1.00957,0.0813 -1.15625,0 -0.156,-0.0864 -0.18776,-0.31985 -0.34375,-0.40625 -0.1467,-0.0813 -1.01813,0.0838 -1.09375,0 -0.0872,-0.0966 0.0872,-0.30955 0,-0.40625 -0.0872,-0.0967 -0.29594,0.0611 -0.40625,0 -0.15599,-0.0864 -0.22042,-0.26958 -0.34375,-0.40625 -0.28897,-0.32025 -0.7745,-1.01414 -1.09375,-1.25 -0.22944,-0.16951 -0.55501,-0.19016 -0.75,-0.40625 -0.0872,-0.0966 0.0872,-0.30955 0,-0.40625 -0.76543,-0.84832 0.0199,1.30009 -0.75,-0.40625 -0.0551,-0.12224 0.11031,-0.34515 0,-0.40625 -0.22061,-0.12224 -0.51602,0.0864 -0.75,0 -0.16546,-0.0611 -0.22042,-0.26957 -0.34375,-0.40625 -0.21759,-0.24114 -1.32867,-1.56135 -1.5,-1.65625 -0.1103,-0.0611 -0.25167,0 -0.375,0 l -0.375,0 -0.34375,0 c 0,-0.66072 -0.46867,0.1984 -0.75,0.40625 -0.22945,0.16952 -0.52939,0.22289 -0.75,0.40625 -0.27904,0.23193 -0.47211,0.57041 -0.71875,0.84375 -0.12333,0.13668 -0.297,0.23338 -0.375,0.40625 -0.25516,0.56554 0.44302,0.35922 -0.375,0.8125 -0.1103,0.0611 -0.26469,-0.0611 -0.375,0 -0.31198,0.17287 -0.40676,0.63963 -0.71875,0.8125 -0.22061,0.12224 -0.51601,-0.0864 -0.75,0 -2.67985,0.98994 0.56821,-0.12572 -1.125,0.8125 -0.1103,0.0611 -0.26469,-0.0611 -0.375,0 -0.15598,0.0864 -0.22043,0.30083 -0.34375,0.4375 -0.12333,0.13667 -0.3095,0.24543 -0.40625,0.40625 -0.30593,0.50854 -0.38785,1.13605 -0.71875,1.625 -0.41858,0.61849 -1.08178,1.01297 -1.46875,1.65625 -0.0684,0.11371 0.0872,0.30955 0,0.40625 -0.11343,0.1257 -1.72942,-0.1267 -1.84375,0 -0.0872,0.0966 0.0551,0.28401 0,0.40625 -0.078,0.17288 -0.30949,0.24544 -0.40625,0.40625 -0.63022,1.04765 -0.027,0.7383 -1.09375,1.625 -0.22061,0.18336 -0.52055,0.26799 -0.75,0.4375 -0.14511,0.10722 -0.18776,0.31985 -0.34375,0.40625 -0.11031,0.0611 -0.29595,-0.0611 -0.40625,0 -0.15599,0.0864 -0.17829,0.34515 -0.34375,0.40625 -0.23399,0.0865 -0.51602,-0.0864 -0.75,0 -0.16546,0.0611 -0.18775,0.31975 -0.34375,0.40625 -0.1103,0.0611 -0.28925,-0.0432 -0.40625,0 -0.26161,0.0966 -0.45714,0.30955 -0.71875,0.40625 -0.23398,0.0864 -0.52939,-0.12224 -0.75,0 -0.156,0.0864 -0.20955,0.34515 -0.375,0.40625 -0.17595,0.065 -2.60575,0 -2.9375,0 l -0.375,0 c -0.12333,0 -0.26469,-0.0611 -0.375,0 -0.15599,0.0864 -0.21901,0.31985 -0.375,0.40625 -0.1103,0.0611 -0.2647,-0.0611 -0.375,0 -0.0982,0.0544 -1.04465,1.14116 -1.09375,1.25 -0.11031,0.24448 0.078,0.55319 0,0.8125 -0.0872,0.28992 -0.28778,0.52258 -0.375,0.8125 -0.11619,0.38627 0.11994,2.20293 0,2.46875 -0.078,0.17288 -0.25167,0.26958 -0.375,0.40625 0,0.13666 0.0551,0.28401 0,0.40625 -0.078,0.17287 -0.25167,0.26957 -0.375,0.40625 l -0.34375,0.40625 c -0.12333,0.13667 -0.32825,0.23337 -0.40625,0.40625 -0.0551,0.12224 0.0872,0.3408 0,0.4375 -0.0237,0.0263 -1.39986,0.7615 -1.46875,0.8125 -0.14512,0.10721 -0.25167,0.26958 -0.375,0.40625 -0.12331,0 -0.23345,-0.0611 -0.34375,0 -0.15599,0.0864 -0.25026,0.31975 -0.40625,0.40625 -0.29598,0.164 -0.79778,-0.16401 -1.09375,0 -0.44397,0.246 -0.64978,0.97274 -1.09375,1.21875 -0.1103,0.0611 -0.29595,-0.0611 -0.40625,0 -0.156,0.0864 -0.18776,0.3511 -0.34375,0.4375 -0.1103,0.0611 -0.23344,-0.0611 -0.34375,0 -0.44396,0.24601 -0.71228,0.97275 -1.15625,1.21875 -0.3488,0.19328 -0.90744,-0.49705 -1.09375,0.40625 -0.84996,0.62796 0.14859,0.22293 -0.75,1.21875 -1.44389,1.60015 -0.18252,-0.0674 -1.09375,0.4375 -0.15599,0.0864 -0.20954,0.34515 -0.375,0.40625 -0.23399,0.0864 -0.4721,0 -0.71875,0 -0.24664,0 -0.51602,0.0864 -0.75,0 -1.54158,-0.56947 -1.18538,-0.50461 -0.78125,-0.4375 -0.7225,-0.40993 -0.0951,-0.26147 -0.34375,-0.8125 -0.156,-0.34575 -0.56275,-0.46676 -0.71875,-0.8125 -0.0551,-0.12223 0.0551,-0.28401 0,-0.40625 -0.078,-0.17287 -0.297,-0.23339 -0.375,-0.40625 -0.19766,-0.43811 0.19766,-0.37439 0,-0.8125 -0.76988,-1.70633 0.0155,0.41081 -0.75,-0.4375 -0.1744,-0.19328 0.1103,-0.56802 0,-0.8125 -0.078,-0.17287 -0.297,-0.23337 -0.375,-0.40625 -0.0551,-0.12224 0.0872,-0.30955 0,-0.40625 -0.0872,-0.0967 -0.28778,0.0967 -0.375,0 -0.17441,-0.19327 0.1103,-0.56802 0,-0.8125 -0.40901,-0.90654 -0.20843,-0.12348 -0.71875,-0.40625 -0.36406,-0.20173 -1.13594,-1.45452 -1.5,-1.65625 -0.11031,-0.0611 -0.2647,0.0611 -0.375,0 -0.156,-0.0864 -0.17829,-0.34515 -0.34375,-0.40625 -0.35099,-0.12965 -0.75503,0 -1.125,0 -0.42423,0 -1.0855,-0.10619 -1.46875,0 -0.53505,0.14823 -0.96494,0.66426 -1.5,0.8125 -0.23927,0.0664 -0.51601,-0.0864 -0.75,0 -0.16546,0.0611 -0.18776,0.31975 -0.34375,0.40625 -0.11259,0.0623 -0.92713,0 -1.09375,0 -0.42423,0 -1.11675,0.10619 -1.5,0 -0.26753,-0.0741 -0.48839,-0.30955 -0.75,-0.40625 -0.11699,-0.0432 -0.23345,0.0611 -0.34375,0 -0.156,-0.0864 -0.2408,-0.34515 -0.40625,-0.40625 -0.23506,-0.0868 -1.68466,0.11754 -1.84375,0 -0.22944,-0.16951 -0.14876,-0.59641 -0.34375,-0.8125 -0.17441,-0.19328 -0.52939,0.12224 -0.75,0 -0.0982,-0.0544 -1.04465,-1.10992 -1.09375,-1.21875 -0.0551,-0.12223 0.0872,-0.3408 0,-0.4375 -0.0872,-0.0967 -0.29595,0.0611 -0.40625,0 -1.53972,-0.8532 0.42173,0.0358 -0.34375,-0.8125 -0.0872,-0.0967 -0.25168,0 -0.375,0 l -0.375,0 c 0,-0.13667 -0.258,-0.0433 -0.375,0 -0.26161,0.0966 -0.45714,0.30955 -0.71875,0.40625 -0.45929,0.16967 -0.41316,-0.34032 -0.75,0.40625 -0.0551,0.12225 0.0551,0.31527 0,0.4375 -0.156,0.34574 -0.594,0.46675 -0.75,0.8125 -0.0551,0.12224 0.1103,0.34515 0,0.40625 -0.0156,0.009 -2.08701,0.0487 -2.21875,0 -0.67194,-0.24821 -0.67045,-0.3434 -1.09375,-0.8125 -0.12332,-0.13667 -0.219,-0.31985 -0.375,-0.40625 -0.36996,-0.205 -0.75502,0.41001 -1.125,0 -0.1744,-0.19327 0.17441,-0.65047 0,-0.84375 -0.1744,-0.19328 -0.5294,0.12224 -0.75,0 -0.11031,-0.0611 0.0872,-0.30955 0,-0.40625 -0.19499,-0.21609 -0.52376,-0.19016 -0.71875,-0.40625 -0.0872,-0.0966 0.0872,-0.30955 0,-0.40625 -0.45061,-0.49938 -0.84168,-0.18454 -1.125,-0.8125 -0.0551,-0.12223 0.0872,-0.30955 0,-0.40625 -0.1744,-0.19328 -0.57559,0.19328 -0.75,0 -0.1744,-0.19328 0.17441,-0.65048 0,-0.84375 -0.1744,-0.19328 -0.54433,0.19327 -0.71875,0 -0.76548,-0.84841 1.16474,0.0407 -0.375,-0.8125 -0.22061,-0.12224 -0.51601,0.0864 -0.75,0 -0.75371,-0.27842 -1.0396,-0.39966 -1.09375,-0.4375 0.15766,0.003 1.05825,0.21139 0,-0.375 -0.22061,-0.12222 -0.63969,0.24449 -0.75,0 -0.1103,-0.24446 0.11031,-0.56802 0,-0.8125 -0.0572,-0.12667 -0.9614,0.0734 -1.09375,0 -0.31199,-0.17288 -0.43802,-0.67087 -0.75,-0.84375 -0.22061,-0.12224 -0.57559,0.19328 -0.75,0 -0.49329,-0.54667 0.81104,-0.38593 -0.34375,-0.8125 -0.23399,-0.0865 -0.51601,0.0864 -0.75,0 -0.25053,-0.0926 -0.81113,-1.06215 -1.09375,-1.21875 -0.51032,-0.28277 -0.34099,0.50029 -0.75,-0.40625 -0.0551,-0.12224 0.0872,-0.30955 0,-0.40625 -0.0872,-0.0967 -0.26469,0.0611 -0.375,0 -0.19759,-0.10949 -0.93022,-1.03414 -1.125,-1.25 -0.19478,-0.21585 -0.99492,-0.99978 -1.09375,-1.21875 -0.0551,-0.12224 0.0872,-0.30955 0,-0.40625 -0.0872,-0.0967 -0.26469,0.0611 -0.375,0 -1.53972,-0.8532 0.39048,0.005 -0.375,-0.84375 -0.0872,-0.0967 -0.2647,0.0611 -0.375,0 -0.36406,-0.20173 -1.10469,-1.42327 -1.46875,-1.625 -0.22061,-0.12224 -0.52939,0.12224 -0.75,0 -0.15598,-0.0865 -0.22989,-0.29903 -0.375,-0.40625 -0.22945,-0.16952 -0.47209,-0.26958 -0.71875,-0.40625 -0.12331,0 -0.26469,0.0611 -0.375,0 -0.31198,-0.17287 -0.43801,-0.67087 -0.75,-0.84375 -0.11029,-0.0611 -0.23344,0.0611 -0.34375,0 -0.15598,-0.0864 -0.25026,-0.31975 -0.40625,-0.40625 -0.1103,-0.0611 -0.23345,0.0611 -0.34375,0 -0.156,-0.0864 -0.219,-0.31985 -0.375,-0.40625 -0.1103,-0.0611 -0.26469,0.0611 -0.375,0 -0.31198,-0.17288 -0.43801,-0.63962 -0.75,-0.8125 -0.2206,-0.12224 -0.57559,0.19328 -0.75,0 -0.0872,-0.0966 0.0872,-0.30955 0,-0.40625 -0.0872,-0.0967 -0.23345,0.0611 -0.34375,0 -0.156,-0.0864 -0.219,-0.31975 -0.375,-0.40625 -0.1103,-0.0611 -0.26469,0.0611 -0.375,0 -0.15599,-0.0864 -0.19864,-0.29902 -0.34375,-0.40625 -0.22945,-0.16951 -0.52055,-0.23673 -0.75,-0.40625 -0.14511,-0.10721 -0.25026,-0.3511 -0.40625,-0.4375 -0.1103,-0.0611 -0.23345,0.0611 -0.34375,0 -0.156,-0.0864 -0.18775,-0.31985 -0.34375,-0.40625 -0.40828,-0.22623 -0.45729,-0.14483 -0.40625,-0.0312 0.0604,0.0731 0.15921,0.18239 -0.34375,-0.375 -0.22944,-0.16952 -0.48839,-0.30955 -0.75,-0.40625 -0.23399,-0.0864 -0.5756,0.19328 -0.75,0 -0.49329,-0.54667 0.81105,-0.38591 -0.34375,-0.8125 -0.23398,-0.0864 -0.52939,0.12224 -0.75,0 -0.1103,-0.0611 0,-0.26958 0,-0.40625 -0.12332,-0.13667 -0.25025,-0.31985 -0.40625,-0.40625 -0.22059,-0.12224 -0.49814,0.12224 -0.71875,0 -0.156,-0.0864 -0.21901,-0.3511 -0.375,-0.4375 -0.1103,-0.0611 -0.23345,0.0611 -0.34375,0 -1.53973,-0.85322 0.35923,0.0358 -0.40625,-0.8125 -0.0872,-0.0967 -0.23344,0.0611 -0.34375,0 -1.53973,-0.85321 0.39049,0.0358 -0.375,-0.8125 -0.0872,-0.0967 -0.2647,0.0611 -0.375,0 -0.15599,-0.0864 -0.25168,-0.26958 -0.375,-0.40625 -0.12333,-0.13667 -0.29699,-0.23338 -0.375,-0.40625 -0.0551,-0.12224 0.0551,-0.28401 0,-0.40625 -0.76988,-1.70635 0.0467,0.41082 -0.71875,-0.4375 -0.0872,-0.0966 0.0551,-0.28401 0,-0.40625 -0.078,-0.17286 -0.297,-0.23338 -0.375,-0.40625 -0.0551,-0.12224 0.0872,-0.30955 0,-0.40625 -0.0872,-0.0967 -0.31989,0.12224 -0.375,0 -0.11029,-0.24447 0.078,-0.55319 0,-0.8125 -0.14165,-0.47097 -0.89837,-0.56133 -1.125,-0.8125 -0.0872,-0.0966 0.0551,-0.28401 0,-0.40625 -0.0317,-0.0703 -1.04776,-1.233 -1.09375,-1.25 -0.46799,-0.17287 -1.02754,0.24448 -1.46875,0 -0.31199,-0.17287 -0.42614,-0.66895 -0.75,-0.8125 -1.54153,-0.68335 -0.61053,0.45555 -1.84375,0 -0.33092,-0.12224 -0.43801,-0.63963 -0.75,-0.8125 -0.10588,-0.0587 -1.64611,0 -1.84375,0 -0.19347,0 -1.40273,-0.0539 -1.5,0 -0.15599,0.0864 -0.18775,0.31985 -0.34375,0.40625 -0.1103,0.0611 -0.29594,-0.0611 -0.40625,0 -0.156,0.0865 -0.18776,0.31975 -0.34375,0.40625 -0.20359,0.11285 -1.92951,-0.10688 -2.21875,0 -0.16546,0.0611 -0.21901,0.31985 -0.375,0.40625 -0.24034,0.13317 -1.60908,-0.13004 -1.84375,0 -0.15599,0.0864 -0.21901,0.31975 -0.375,0.40625 -0.1126,0.0623 -0.95839,0 -1.125,0 l -2.5625,0 c -0.19347,0 -1.40273,0.0539 -1.5,0 -0.156,-0.0864 -0.17829,-0.34515 -0.34375,-0.40625 -0.35099,-0.12966 -0.75504,0 -1.125,0 l -2.96875,0 -0.34375,0 c -0.12332,0 -0.29594,0.0611 -0.40625,0 -0.156,-0.0864 -0.22044,-0.26959 -0.34375,-0.40625 -0.12334,0 -0.2647,0.0611 -0.375,0 -0.15599,-0.0865 -0.21901,-0.31975 -0.375,-0.40625 -0.22967,-0.12725 -0.38536,-0.14688 -0.4375,-0.125 -0.0447,-0.0394 -0.13254,-0.0818 -0.3125,-0.28125 -0.1103,-0.0611 -0.25653,0.0967 -0.34375,0 -0.0872,-0.0966 0.0872,-0.30955 0,-0.40625 -0.12914,-0.14312 -1.04824,0.17019 -1.125,0 -0.11031,-0.24448 0.1103,-0.59927 0,-0.84375 -0.11031,-0.24448 -0.60844,0.24448 -0.71875,0 -0.1103,-0.24448 0.11031,-0.56804 0,-0.8125 -0.1103,-0.24449 -0.6397,0.24446 -0.75,0 -0.11031,-0.24449 0.13681,-0.58507 0,-0.8125 -0.15297,-0.25427 -0.50336,-0.26958 -0.75,-0.40625 -0.12332,-0.13667 -0.247,-0.24543 -0.34375,-0.40625 -0.15297,-0.25428 -0.25329,-0.58948 -0.40625,-0.84375 -0.10455,-0.17379 -0.94068,-1.13395 -1.09375,-1.21875 -0.11031,-0.0611 -0.2647,0.0611 -0.375,0 -0.156,-0.0864 -0.21901,-0.31985 -0.375,-0.40625 -0.1338,-0.0742 -1.58642,0 -1.84375,0 -0.22338,0 -0.80844,-0.0433 -1.1875,-0.0312 z m 182.46875,43.0625 c 0.0968,0 0.21497,0.024 0.3125,0.0312 0.0247,-0.006 0.041,-0.0312 0.0625,-0.0312 l -0.375,0 z m 36.625,14.375 c 0.0349,0 0.0787,-0.0186 0.125,-0.0312 -0.0651,-0.0208 -0.125,-0.0199 -0.125,0.0312 z m 0.125,-0.0312 c 0.10839,0.0347 0.25,0.11677 0.25,0.0312 0,-0.098 -0.13278,-0.0633 -0.25,-0.0312 z M 506.28125,602 c 0.0384,0.0427 0.11397,0.0257 0.1875,0 -0.0994,-0.0324 -0.21507,-0.0611 -0.1875,0 z m -203.875,-81.21875 c -0.0521,-0.003 -0.17029,0.0469 -0.25,0.0625 0.14454,0.0199 0.28125,0.0421 0.28125,0 0,-0.0342 -0.005,-0.0609 -0.0312,-0.0625 z m 204.1875,81.1875 c -0.0279,10e-4 -0.053,0.0168 -0.0937,0.0312 0.0897,0.0279 0.15625,0.0615 0.15625,0 0,-0.0342 -0.0347,-0.0325 -0.0625,-0.0312 z"
         style="fill:#49882d;fill-opacity:1;stroke:none"
         inkscape:connector-curvature="0" />
      <path
         inkscape:connector-curvature="0"
         id="path4497"
         d="m 501.95091,596.96142 c -0.38205,0.12392 -0.85194,0.3685 -1.0919,0.71875 -0.15174,0.22149 -0.23363,0.46601 -0.38537,0.6875 -0.096,0.14008 -0.27588,0.22441 -0.35326,0.375 -0.0547,0.10648 0.0547,0.23727 0,0.34375 -0.0774,0.15059 -0.308,0.22442 -0.38538,0.375 -0.0547,0.10648 0.0547,0.23727 0,0.34375 -0.0774,0.15058 -0.23092,0.25595 -0.35326,0.375 l -0.35326,0.34375 c -0.19323,0.18803 -0.928,0.9671 -1.12401,1.0625 -0.10943,0.0532 -0.23457,-0.0289 -0.35326,0 -0.37533,0.0913 -0.71254,0.3012 -1.0919,0.375 -0.23994,0.0467 -0.49396,0 -0.73864,0 l -1.83053,0 -5.13834,0 -4.43182,0 -1.83053,0 c -0.24469,0 -0.50126,0.0577 -0.73864,0 -0.2654,-0.0646 -0.44701,-0.2908 -0.70652,-0.375 -0.11607,-0.0376 -0.29885,0.0842 -0.38538,0 -0.0865,-0.0842 0.0547,-0.23727 0,-0.34375 -0.0774,-0.15059 -0.27588,-0.22442 -0.35326,-0.375 -0.0547,-0.10648 0.0865,-0.25955 0,-0.34375 -0.19344,-0.18823 -0.5452,-0.15552 -0.73864,-0.34375 -0.0865,-0.0842 0.0547,-0.26852 0,-0.375 -0.40575,-0.78966 -0.23237,-0.0974 -0.73863,-0.34375 -0.51023,-0.24825 -0.42073,-0.35079 -0.38538,-0.375 -0.0383,10e-4 -0.13807,0 -0.35326,0 -0.12234,0 -0.23719,-0.0376 -0.35326,0 -0.25953,0.0842 -0.47324,0.3104 -0.73864,0.375 -0.47475,0.1155 -1.01301,-0.15058 -1.47727,0 -0.16414,0.0532 -0.23092,0.2247 -0.35326,0.34375 -0.12234,0.11905 -0.30799,0.22442 -0.38537,0.375 -0.10943,0.21296 0.10942,0.47454 0,0.6875 -0.15476,0.30117 -0.58388,0.41758 -0.73864,0.71875 -0.10943,0.21296 0.17302,0.55039 0,0.71875 -0.0865,0.0842 -0.26673,-0.0842 -0.35326,0 -0.19344,0.18823 -0.20152,0.49726 -0.35326,0.71875 -0.1195,0.17441 -1.29804,1.32123 -1.47728,1.4375 -0.22761,0.14767 -0.51101,0.19609 -0.73863,0.34375 -0.14397,0.0934 -0.19852,0.2997 -0.35326,0.375 -0.10943,0.0532 -0.27595,-0.0532 -0.38538,0 -1.52746,0.74319 0.40613,-0.0515 -0.35326,0.6875 -0.19344,0.18823 -0.51102,0.22734 -0.73864,0.375 -0.14395,0.0934 -0.26303,0.2247 -0.38537,0.34375 l -1.0919,1.09375 c -0.12234,0.11905 -0.19851,0.26845 -0.35326,0.34375 -0.21885,0.10648 -0.51978,-0.10648 -0.73864,0 -0.15474,0.0753 -0.23062,0.26845 -0.38537,0.34375 -0.0949,0.0462 -1.92364,0 -2.1838,0 l -4.04644,0 c -0.50855,0 -1.78125,-0.0784 -2.18379,0 -0.75589,0.1471 -1.21017,0.40129 -1.86265,0.71875 -0.24468,0.11905 -0.44701,0.2908 -0.70652,0.375 -0.3482,0.11294 -0.76795,-0.0866 -1.12402,0 -0.26539,0.0646 -0.47324,0.27915 -0.73863,0.34375 -0.23738,0.0577 -0.46659,-0.0467 -0.70652,0 -0.37938,0.0738 -0.74869,0.2837 -1.12402,0.375 -0.31903,0.0776 -1.08225,0 -1.44515,0 l -2.56917,0 -5.87698,0 -1.83054,0 c -0.24467,0 -0.50125,0.0577 -0.73863,0 -0.9529,-0.23181 -0.87215,-0.3392 -0.77075,-0.375 -0.0844,10e-4 -0.26176,0 -0.70652,0 l -1.83054,0 c -0.12233,0 -0.29884,0.0842 -0.38537,0 -0.0865,-0.0842 -0.0547,-0.23727 0,-0.34375 0.0774,-0.15058 0.54013,-0.2997 0.38537,-0.375 -0.23427,-0.11398 -1.40104,0 -1.83053,0 -0.12235,0 -0.33071,0.10648 -0.38538,0 -0.10942,-0.21296 0.17302,-0.55039 0,-0.71875 -0.34603,-0.33672 -1.09912,0.33671 -1.44516,0 -0.173,-0.16836 0.17302,-0.51914 0,-0.6875 -0.25676,-0.24985 -1.1381,0.16502 -1.47727,0 -0.15474,-0.0753 -0.22123,-0.3218 -0.38537,-0.375 -0.2037,-0.0661 -2.48245,0 -2.92243,0 l -7.70752,0 -9.53804,0 -2.56917,0 -0.73864,0 c -0.24468,0 -0.5065,-0.0753 -0.73863,0 -0.16414,0.0532 -0.19852,0.2997 -0.35326,0.375 -0.23454,0.11411 -1.18186,-0.0958 -1.47728,0 -0.25952,0.0842 -0.47911,0.25955 -0.73863,0.34375 -0.11607,0.0376 -0.2372,-0.0376 -0.35326,0 -0.25953,0.0842 -0.49395,0.2247 -0.73864,0.34375 -0.12233,0 -0.26931,-0.0377 -0.38538,0 -0.25952,0.0842 -0.44699,0.2908 -0.70652,0.375 -0.23212,0.0753 -0.51978,-0.10648 -0.73863,0 -0.15476,0.0753 -0.22124,0.29055 -0.38538,0.34375 -0.23213,0.0753 -0.50651,-0.0753 -0.73864,0 -0.16413,0.0532 -0.19851,0.2997 -0.35326,0.375 -0.11169,0.0543 -0.9266,0 -1.09189,0 l -2.21591,0 -2.56917,0 c -0.24118,0 -0.88483,-0.0672 -1.0919,0 -0.25952,0.0842 -0.47911,0.25955 -0.73864,0.34375 -0.2378,0.0771 -1.53004,0 -1.83053,0 l -3.30781,0 -0.73863,0 c -0.24468,0 -0.50652,-0.0753 -0.73864,0 -0.51905,0.16836 -0.45171,1.32574 -1.44516,0.71875 -0.41392,0.0806 -1.38232,0 -1.86265,0 l -4.75296,0 -0.73864,0 c -0.24469,0 -0.5065,-0.0753 -0.73863,0 -0.16414,0.0532 -0.18913,0.29055 -0.35327,0.34375 -0.23212,0.0753 -0.49394,0 -0.73863,0 l -2.21591,0 -0.35326,0 c -0.12234,0 -0.27595,-0.0532 -0.38538,0 -0.15474,0.0753 -0.19851,0.2997 -0.35326,0.375 -0.1117,0.0543 -0.92661,0 -1.0919,0 l -2.56917,0 -0.73863,0 c -0.24468,0 -0.50127,-0.0578 -0.73864,0 -0.26539,0.0646 -0.47324,0.27915 -0.73863,0.34375 -0.35607,0.0866 -0.74371,-0.11294 -1.0919,0 -0.25952,0.0842 -0.47911,0.2908 -0.73864,0.375 -0.39001,0.12651 -1.08727,-0.1265 -1.47727,0 -0.25953,0.0842 -0.47324,0.27915 -0.73864,0.34375 -0.23738,0.0577 -0.46183,0 -0.70652,0 l -1.12401,0 -3.66107,0 -11.01532,0 -3.66106,0 c -0.19192,0 -1.38078,-0.047 -1.47728,0 -0.15474,0.0753 -0.19851,0.2997 -0.35326,0.375 -0.10942,0.0532 -0.26304,0 -0.38537,0 -0.24469,0 -0.50126,-0.0578 -0.73864,0 -0.26539,0.0646 -0.44112,0.27915 -0.70652,0.34375 -0.27911,0.0679 -1.5553,0 -1.86265,0 -0.12234,0 -0.2372,-0.0376 -0.35326,0 -0.25953,0.0842 -0.47911,0.25955 -0.73864,0.34375 -0.11606,0.0376 -0.2333,-0.0234 -0.35326,0 -0.49462,0.0963 -0.9797,0.2943 -1.47727,0.375 -0.24136,0.0391 -0.50126,-0.0578 -0.73864,0 -0.53079,0.12912 -0.94648,0.58963 -1.47727,0.71875 -0.1187,0.0289 -0.23,0.007 -0.35326,0 0,0.11905 -0.4756,0 -0.35326,0 l -0.38538,0 c -0.38167,0 -1.89508,-0.0702 -2.18379,0 -0.2654,0.0646 -0.47911,0.25955 -0.73864,0.34375 -0.31441,0.10198 -1.15347,-0.0788 -1.47727,0 -0.46898,0.11408 -1.1969,0.65325 -1.47727,1.0625 -0.15175,0.22149 -0.18913,0.50579 -0.35326,0.71875 -0.20762,0.26938 -0.5467,0.43858 -0.73864,0.71875 -0.0678,0.0991 0.0865,0.2908 0,0.375 -0.38688,0.37646 -1.03958,0.36806 -1.47727,0.6875 -0.27684,0.20203 -0.45072,0.53197 -0.73864,0.71875 -0.10174,0.066 -0.24384,-0.0532 -0.35326,0 -2.6484,1.28858 0.6481,0.18524 -2.56917,1.4375 -0.46835,0.1823 -1.16314,-0.62751 -1.47727,0.34375 -0.15476,0.0753 -0.19851,0.2997 -0.35327,0.375 -0.10942,0.0532 -0.27594,-0.0532 -0.38537,0 -0.15475,0.0753 -0.19852,0.26845 -0.35326,0.34375 -0.10943,0.0532 -0.24384,-0.0532 -0.35326,0 -0.15475,0.0753 -0.24142,0.2816 -0.38538,0.375 -0.22762,0.14767 -0.51102,0.19609 -0.73863,0.34375 -0.14397,0.0934 -0.19851,0.2997 -0.35327,0.375 -0.10942,0.0532 -0.27594,-0.0532 -0.38537,0 -0.15475,0.0753 -0.18912,0.29055 -0.35326,0.34375 -0.39001,0.1265 -1.08727,-0.1265 -1.47727,0 -1.42937,0.46363 -0.0114,0.34375 -1.44516,0.34375 -0.19192,0 -1.38078,-0.047 -1.47728,0 -0.15474,0.0753 -0.23061,0.2997 -0.38537,0.375 -0.21885,0.10648 -0.47439,-0.0753 -0.70652,0 -0.25952,0.0842 -0.47324,0.27915 -0.73864,0.34375 -0.47475,0.1155 -1.00252,-0.11549 -1.47727,0 -0.2654,0.0646 -0.47911,0.2908 -0.73864,0.375 -0.11606,0.0376 -0.23719,-0.0376 -0.35326,0 -0.25953,0.0842 -0.47324,0.27915 -0.73864,0.34375 -0.35606,0.0866 -0.72486,0 -1.09189,0 l -2.21591,0 -1.83054,0 -0.38537,0 c -0.12235,0 -0.24384,0.0532 -0.35326,0 -0.15476,-0.0753 -0.18912,-0.29055 -0.35326,-0.34375 -0.34819,-0.11293 -0.77583,0.11294 -1.12402,0 -0.25952,-0.0842 -0.4791,-0.2908 -0.73863,-0.375 -0.11607,-0.0376 -0.24384,0.0532 -0.35326,0 -0.15476,-0.0753 -0.19851,-0.26845 -0.35326,-0.34375 -0.10942,-0.0532 -0.26304,0 -0.38538,0 -0.24468,0 -0.50126,0.0577 -0.73864,0 -0.26539,-0.0646 -0.4791,-0.2908 -0.73863,-0.375 -0.231,-0.0749 -1.49972,0 -1.83054,0 -0.18842,0 -1.35431,-0.0589 -1.44515,0 -0.28792,0.18677 -0.49396,0.48066 -0.73864,0.71875 l -0.73864,0.71875 c -0.24467,0.23809 -0.42913,0.56817 -0.73863,0.71875 -1.08009,0.52551 -0.84961,0.12393 -0.6423,-0.125 -0.11521,0.12621 -0.30615,0.32915 -0.83498,0.84375 -0.10184,0.066 -0.23091,0 -0.35326,0 l -0.73863,0 c 0,0.11905 -0.4756,0 -0.35326,0 -0.15475,-0.0753 -0.22124,-0.3218 -0.38538,-0.375 -0.23213,-0.0753 -0.49396,0 -0.73864,0 l -0.73863,0 -0.35326,0 c 0,0.11904 -0.4756,0 -0.35326,0 l -0.38538,0 c -0.12234,0 -0.24383,-0.0532 -0.35326,0 -0.39454,0.19195 -0.71446,0.55934 -1.12401,0.71875 -0.26616,0.1036 -1.96852,-0.10473 -2.1838,0 -0.19601,0.0954 -0.89866,0.90573 -1.09189,1.09375 -0.21587,0.21005 -1.39229,1.24087 -1.47728,1.40625 -0.12233,0.2381 0.30993,1.13445 -0.38537,1.09375 -0.096,0.14008 -0.27588,0.19317 -0.35326,0.34375 -0.10943,0.21296 0.13572,0.52064 0,0.71875 -0.19195,0.28017 -0.54669,0.43859 -0.73864,0.71875 -0.13572,0.19811 0.10943,0.50579 0,0.71875 -0.15475,0.30117 -0.58389,0.38633 -0.73864,0.6875 -0.0547,0.10648 0.0865,0.2908 0,0.375 -0.0865,0.0842 -0.24383,-0.0532 -0.35326,0 -0.15474,0.0753 -0.23062,0.26845 -0.38537,0.34375 -0.10943,0.0532 -0.2372,-0.0376 -0.35326,0 -0.25953,0.0842 -0.47325,0.3104 -0.73864,0.375 -0.23737,0.0577 -0.50127,-0.0577 -0.73864,0 -0.26539,0.0646 -0.47324,0.27915 -0.73863,0.34375 -0.75571,0.18384 -0.85971,0.13857 -0.80287,0.0625 0.10366,-0.0615 0.25375,-0.12346 -0.64229,0.3125 -0.35607,0.0866 -0.75699,0 -1.12401,0 l -2.1838,0 c -0.19192,0 -1.38077,0.0469 -1.47727,0 -0.3095,-0.15058 -0.42913,-0.56816 -0.73864,-0.71875 -0.10942,-0.0532 -0.23091,0 -0.35326,0 l -0.38537,0 -2.1838,0 -1.83053,0 c 0,0.11905 -0.50772,0 -0.38538,0 -1.4324,1.39384 0.0988,0.18288 -0.35326,1.0625 -0.0774,0.15059 -0.30799,0.19316 -0.38537,0.34375 -0.10943,0.21296 0.10942,0.50579 0,0.71875 -0.0774,0.15059 -0.23092,0.25596 -0.35327,0.375 -0.12234,0.11905 -0.20929,0.25035 -0.35326,0.34375 -0.45523,0.29532 -1.02203,0.42343 -1.47727,0.71875 -0.14395,0.0934 -0.22124,0.29055 -0.38537,0.34375 -0.20879,0.0677 -1.48486,0 -1.83054,0 -0.12234,0 -0.26673,0.0842 -0.35326,0 -0.75938,-0.73899 1.14209,0.0557 -0.38537,-0.6875 -0.29362,-0.14286 -0.79828,0.14286 -1.0919,0 -0.10943,-0.0532 0.10942,-0.3218 0,-0.375 -1.16292,-0.56581 -0.35072,0.75247 -1.47727,-0.34375 -0.0865,-0.0842 0.0865,-0.2908 0,-0.375 -0.0865,-0.0842 -0.2372,0.0376 -0.35327,0 -0.25952,-0.0842 -0.4791,-0.25955 -0.73863,-0.34375 -0.11607,-0.0376 -0.26673,0.0842 -0.35326,0 -0.0865,-0.0842 0.0865,-0.2908 0,-0.375 -0.0865,-0.0842 -0.29885,0.0842 -0.38538,0 -0.0865,-0.0842 0.0865,-0.25955 0,-0.34375 -0.0865,-0.0842 -0.26673,0.0842 -0.35326,0 -0.0865,-0.0842 0.0865,-0.25955 0,-0.34375 -0.75943,-0.73894 0.0251,1.11134 -0.73864,-0.375 -0.0547,-0.10648 0.0865,-0.25955 0,-0.34375 -0.0865,-0.0842 -0.29858,0.10648 -0.35326,0 -0.1531,-0.29796 0.17089,-1.27121 0,-1.4375 -0.173,-0.16836 -0.56561,0.16836 -0.73863,0 -0.17302,-0.16836 0.17302,-0.55039 0,-0.71875 -0.97873,-0.95238 -0.73864,1.18601 -0.73864,-0.71875 -0.10133,-0.19725 -0.80522,0.27896 -1.0919,0 -1.51877,-1.47787 2.31631,0.0801 -0.73863,-1.40625 -0.21886,-0.10648 -0.49395,0 -0.73864,0 l -0.73864,0 c -0.29287,0 -1.61033,-0.0714 -1.83053,0 -0.25952,0.0842 -0.47911,0.25955 -0.73864,0.34375 -0.32975,0.10696 -0.75383,-0.0822 -1.09189,0 -0.37533,0.0913 -0.75699,0.2247 -1.12402,0.34375 -0.24467,0.11904 -0.44111,0.3104 -0.70652,0.375 -0.1788,0.0435 -1.2832,-0.0944 -1.47727,0 -0.15475,0.0753 -0.22124,0.29055 -0.38538,0.34375 -0.23213,0.0753 -0.46914,-0.0577 -0.70652,0 -0.26539,0.0646 -0.47911,0.2908 -0.73863,0.375 -0.25246,0.0819 -0.90747,-0.10536 -1.12402,0 -0.15474,0.0753 -0.19851,0.26845 -0.35326,0.34375 -0.10942,0.0532 -0.23719,-0.0376 -0.35326,0 -0.25951,0.0842 -0.47911,0.2908 -0.73863,0.375 -0.3482,0.11294 -0.77582,-0.11294 -1.12402,0 -0.16414,0.0532 -0.18912,0.29055 -0.35326,0.34375 -0.23213,0.0753 -0.50125,-0.0577 -0.73863,0 -0.2654,0.0646 -0.47912,0.25955 -0.73864,0.34375 -0.25246,0.0819 -0.87535,-0.10536 -1.0919,0 -0.15475,0.0753 -0.1985,0.2997 -0.35326,0.375 -0.34602,0.16836 -0.75699,0.2247 -1.12401,0.34375 -0.12234,0 -0.2372,-0.0376 -0.35326,0 -0.25952,0.0842 -0.47911,0.2908 -0.73864,0.375 -0.25245,0.0819 -0.87534,-0.10536 -1.09189,0 -1.67973,0.81726 1.53449,-0.14356 -1.12402,0.71875 -0.92673,0.30054 0.39141,-0.73878 -1.09189,0.34375 -0.27683,0.20203 -0.46182,0.51672 -0.73864,0.71875 -0.21885,0.15972 -0.51978,0.18403 -0.73864,0.34375 -0.27682,0.20203 -0.4363,0.5084 -0.70652,0.71875 -0.34444,0.26814 -0.77113,0.46121 -1.12401,0.71875 -0.13842,0.10102 -0.2093,0.25035 -0.35326,0.34375 -0.22762,0.14766 -0.51102,0.22734 -0.73864,0.375 -0.15264,0.099 -1.4116,1.30977 -1.47727,1.4375 -0.0547,0.10648 0.0865,0.25955 0,0.34375 -0.0865,0.0842 -0.24384,-0.0532 -0.35326,0 -0.32531,0.15828 -0.75778,0.84576 -1.0919,1.0625 -0.22762,0.14766 -0.51102,0.22734 -0.73864,0.375 -0.43187,0.28017 -0.70877,0.75946 -1.12401,1.0625 -0.21885,0.15972 -0.46183,0.2247 -0.70652,0.34375 -0.12233,0 -0.27595,-0.0532 -0.38537,0 -1.4568,0.70828 1.61295,0.11735 -1.47728,0.71875 -1.25964,0.24515 -0.31896,-0.29417 -1.83053,0 -0.26825,0.0522 -0.47324,0.3104 -0.73864,0.375 -0.23738,0.0577 -0.46183,0 -0.70652,0 -0.4173,0 -1.85139,-0.0709 -2.21591,0 -0.37936,0.0738 -0.71657,0.25245 -1.0919,0.34375 -0.314,0.0764 -1.46368,0 -1.83053,0 l -1.12401,0 c -0.24469,0 -0.49871,0.0467 -0.73864,0 -0.37936,-0.0738 -0.71028,-0.28185 -1.0919,-0.34375 -0.006,-10e-4 -1.61404,0.0702 -1.83053,0 -0.25953,-0.0842 -0.47911,-0.2908 -0.73864,-0.375 -0.34818,-0.11294 -0.73583,0.0866 -1.09189,0 -0.2654,-0.0646 -0.47324,-0.27915 -0.73864,-0.34375 -0.48257,-0.11739 -1.3747,0.14785 -1.83053,0 -0.16414,-0.0532 -0.23063,-0.2997 -0.38538,-0.375 -0.10942,-0.0532 -0.23092,0 -0.35326,0 -0.24469,0 -0.50125,0.0577 -0.73864,0 -1.9058,-0.46363 0.38265,-0.34375 -1.47727,-0.34375 l -5.13834,0 -1.83053,0 c -0.24469,0 -0.50126,-0.0577 -0.73864,0 -0.26539,0.0646 -0.44699,0.25955 -0.70652,0.34375 -0.19863,0.0644 -1.35224,0 -1.47727,0 l -3.66107,0 c -0.6117,0 -1.26282,-0.11674 -1.86265,0 -0.26825,0.0522 -0.44112,0.3104 -0.70652,0.375 -0.23737,0.0577 -0.49396,0 -0.73864,0 l -1.12401,0 -4.01433,0 -2.56917,0 -0.73863,0 c -0.24468,0 -0.50127,0.0577 -0.73864,0 -0.2654,-0.0646 -0.47911,-0.2908 -0.73864,-0.375 -0.19864,-0.0644 -1.35223,0 -1.47727,0 l -2.92243,0 c -0.24469,0 -0.50651,0.0753 -0.73864,0 -0.16414,-0.0532 -0.18912,-0.29055 -0.35326,-0.34375 -0.33032,-0.10714 -0.79369,0.10715 -1.12401,0 -2.65851,-0.86231 0.58783,0.0985 -1.0919,-0.71875 -0.39266,-0.19105 -0.34597,0.19104 -0.73863,0 -0.15476,-0.0753 -0.27588,-0.19316 -0.35327,-0.34375 -0.0547,-0.10647 0.10943,-0.3218 0,-0.375 -0.23068,-0.11223 -1.24659,0.11224 -1.47727,0 -0.15474,-0.0753 -0.19851,-0.26845 -0.35326,-0.34375 -0.10942,-0.0532 -0.27595,0.0532 -0.38537,0 -0.15476,-0.0753 -0.18913,-0.3218 -0.35327,-0.375 -0.23211,-0.0753 -0.49395,0 -0.73863,0 -0.24856,0 -2.40197,0.0542 -2.56917,0 -0.16414,-0.0532 -0.19851,-0.26845 -0.35326,-0.34375 -0.23068,-0.11223 -1.24658,0.11224 -1.47728,0 -0.15474,-0.0753 -0.22123,-0.29055 -0.38537,-0.34375 -0.19731,-0.064 -1.13442,0 -1.44516,0 l -3.69318,0 -4.75297,0 c -0.14508,0 -1.67378,0.0763 -1.83053,0 -0.15476,-0.0753 -0.23063,-0.2997 -0.38538,-0.375 -0.10942,-0.0532 -0.24383,0.0532 -0.35326,0 -0.15474,-0.0753 -0.22123,-0.29055 -0.38537,-0.34375 -0.23213,-0.0753 -0.46184,0 -0.70652,0 l -1.12402,0 -2.56917,0 c -0.24468,0 -0.50125,0.0577 -0.73863,0 -0.2654,-0.0646 -0.447,-0.2908 -0.70652,-0.375 -0.11606,-0.0376 -0.26669,0.0289 -0.38538,0 -0.37532,-0.0913 -0.71253,-0.26995 -1.0919,-0.34375 -0.23993,-0.0467 -0.51978,0.10648 -0.73863,0 -0.10943,-0.0532 0.0865,-0.2908 0,-0.375 -0.0235,-0.0229 -1.40894,-0.6431 -1.47728,-0.6875 -0.28792,-0.18678 -0.42913,-0.56816 -0.73863,-0.71875 -0.10943,-0.0532 -0.26673,0.0842 -0.35326,0 -0.0865,-0.0842 0.0547,-0.26852 0,-0.375 -0.15476,-0.30117 -0.58388,-0.41758 -0.73864,-0.71875 -0.0547,-0.10648 0.0386,-0.23081 0,-0.34375 -0.0865,-0.25253 -0.26673,-0.46621 -0.35326,-0.71875 -0.0618,-0.18027 0.0422,-0.40615 0.0321,-0.59375 l -1.38093,0 0,45.4375 392.40863,0 0,-82.6875 -6.8083,0 -0.35326,0 z"
         style="fill:#b58159;fill-opacity:1;stroke:none" />
    </g>
    <path
       style="fill:none;stroke:#000000;stroke-width:1px;stroke-linecap:butt;stroke-linejoin:miter;stroke-opacity:1"
       d="m 92.96704,702.54083 115.66245,31.31473"
       id="path4516"
       inkscape:connector-curvature="0" />
    <path
       style="fill:none;stroke:#000000;stroke-width:1;stroke-linecap:butt;stroke-linejoin:miter;stroke-miterlimit:4;stroke-opacity:1;stroke-dasharray:3, 3;stroke-dashoffset:0;marker-end:url(#Arrow1Lend)"
       d="m 265.70312,764.66521 9.09136,210.11173"
       id="path5289"
       inkscape:connector-curvature="0" />
    <path
       style="fill:none;stroke:#000000;stroke-width:0.94621301px;stroke-linecap:butt;stroke-linejoin:miter;stroke-opacity:1;marker-end:url(#Arrow1Lend)"
       d="M 74.25232,729.28298 253.46847,968.23784"
       id="path5291"
       inkscape:connector-curvature="0" />
    <path
       style="fill:none;stroke:#000000;stroke-width:1;stroke-linecap:butt;stroke-linejoin:miter;stroke-miterlimit:4;stroke-opacity:1;stroke-dasharray:3, 3;stroke-dashoffset:0;marker-end:url(#Arrow1Lend)"
       d="m 259.13713,765.67536 -24.74874,40.91118"
       id="path4524"
       inkscape:connector-curvature="0" />
    <path
       style="fill:none;stroke:#000000;stroke-width:1;stroke-linecap:butt;stroke-linejoin:miter;stroke-miterlimit:4;stroke-opacity:1;stroke-dasharray:3, 3;stroke-dashoffset:0;marker-end:url(#Arrow1Lend)"
       d="m 272.77419,765.14998 46.467,34.85027"
       id="path4526"
       inkscape:connector-curvature="0" />
    <text
       xml:space="preserve"
       style="font-size:40px;font-style:normal;font-weight:normal;line-height:125%;letter-spacing:0px;word-spacing:0px;fill:#000000;fill-opacity:1;stroke:none;font-family:Sans"
       id="text5160"
       sodipodi:linespacing="125%"
       transform="translate(-273.36405,351.50952)"><textPath
         xlink:href="#path4520"
         id="textPath5164"
         style="font-size:12px">Direct radiation</textPath></text>
    <text
       xml:space="preserve"
       style="font-size:40px;font-style:normal;font-weight:normal;line-height:125%;letter-spacing:0px;word-spacing:0px;fill:#000000;fill-opacity:1;stroke:none;font-family:Sans"
       id="text5227"
       sodipodi:linespacing="125%"
       transform="translate(-309.36405,318.08094)"><textPath
         xlink:href="#path4518"
         id="textPath5231"
         style="font-size:12px">Diffuse radiation</textPath></text>
    <text
       xml:space="preserve"
       style="font-size:40px;font-style:normal;font-weight:normal;line-height:125%;letter-spacing:0px;word-spacing:0px;fill:#000000;fill-opacity:1;stroke:none;font-family:Sans"
       x="586.89862"
       y="246.35529"
       id="text5423"
       sodipodi:linespacing="125%"
       transform="translate(0,642.36218)"><tspan
         sodipodi:role="line"
         id="tspan5425" /></text>
    <text
       xml:space="preserve"
       style="font-size:40px;font-style:normal;font-weight:normal;line-height:125%;letter-spacing:0px;word-spacing:0px;fill:#000000;fill-opacity:1;stroke:none;font-family:Sans"
       id="text4037"
       sodipodi:linespacing="125%"
       transform="matrix(-1,0,0,-1,369.11901,1397.2865)"><textPath
         xlink:href="#path4041"
         id="textPath4235"><tspan
   style="font-size:12px"
   id="tspan4039">Cloud albedo</tspan></textPath></text>
    <path
       style="fill:none;stroke:#000000;stroke-width:1px;stroke-linecap:butt;stroke-linejoin:miter;stroke-opacity:1;marker-end:url(#marker5261)"
       d="M 210.05321,729.28184 137.47388,652.41662"
       id="path4041"
       inkscape:connector-curvature="0" />
  </g>
</svg>
